<svg width="135" height="22" viewBox="0 0 135 22" fill="none" xmlns="http://www.w3.org/2000/svg">
<path d="M128.778 3.61511H128.005V0.633489H127.012V0H129.771V0.633489H128.778V3.61511Z" fill="black"/>
<path d="M131.884 3.61511L131.001 0.77708H130.978C130.983 0.844652 130.988 0.94601 130.993 1.08115C131.004 1.2163 131.012 1.3627 131.017 1.52037C131.022 1.67241 131.025 1.81037 131.025 1.93425V3.61511H130.339V0H131.388L132.255 2.76201H132.271L133.193 0H134.242V3.61511H133.524V1.90047C133.524 1.78785 133.527 1.65833 133.532 1.51193C133.538 1.35989 133.543 1.21911 133.548 1.0896C133.553 0.954457 133.556 0.853099 133.556 0.785526H133.54L132.594 3.61511H131.884Z" fill="black"/>
<path d="M85.9909 16.3446C85.9909 14.194 83.7569 12.3794 80.2179 12.2674V12.1778C83.0934 12.0882 85.2389 10.8112 85.2389 8.57101C85.2389 5.81553 82.1422 4.94183 79.311 4.94183C77.9397 4.94183 75.7499 5.00904 74.6218 5.00904C72.3215 5.00904 70.375 4.94183 70.375 4.94183V5.16586C71.5031 5.16586 72.0339 5.5691 72.0339 7.15967V17.5991C72.0339 19.3465 71.5031 20.3994 70.375 20.3994V20.6235C70.375 20.6235 72.3215 20.5563 74.6218 20.5563C75.9047 20.5563 78.3599 20.6235 79.8198 20.6235C83.0491 20.6235 85.9909 19.5258 85.9909 16.3446ZM80.3949 16.4342C80.3949 18.6969 79.7976 20.3994 78.5148 20.3994C77.6964 20.3994 77.2097 19.9962 77.2097 18.4056V12.3346C79.6207 12.3346 80.3949 14.8213 80.3949 16.4342ZM77.2097 5.30027C77.3867 5.23307 77.5858 5.21066 77.7627 5.21066C79.1783 5.21066 79.9304 6.5324 79.9304 8.57101C79.9304 10.9905 79.0014 12.1106 77.2097 12.1106V5.30027Z" fill="black"/>
<path d="M93.1796 19.5706C92.7372 19.7274 92.4496 19.8842 92.0736 19.8842C91.3879 19.8842 91.0783 19.2345 91.0783 18.204C91.0783 16.7479 91.587 15.4485 92.8035 15.2021C92.8035 15.2021 92.7151 15.807 92.7151 17.0167C92.7151 18.9657 93.1796 19.5706 93.1796 19.5706ZM97.6255 13.9252C97.6255 10.856 96.3868 9.4223 92.5824 9.4223C89.8839 9.4223 86.8757 10.4752 86.8757 12.357C86.8757 13.3651 87.6499 14.0596 88.8443 14.0596C89.5521 14.0596 90.5917 13.7459 91.1889 13.2755C90.7686 12.6482 90.5474 12.0882 90.5474 11.2593C90.5474 10.3408 90.9677 9.60152 91.7861 9.60152C92.6045 9.60152 92.9363 10.2288 92.9363 11.7745C92.9363 13.4771 92.8035 15.0005 92.8035 15.0005C88.5125 15.0005 86.1458 16.367 86.1458 18.6521C86.1458 20.3546 87.5393 21.0715 89.1318 21.0715C91.0562 21.0715 92.2506 20.0186 93.2459 19.7498C93.8431 20.6907 94.9491 21.0043 96.1214 21.0043C97.4485 21.0043 98.5545 20.5563 98.9747 19.817L98.8862 19.7498C98.7314 19.9514 98.466 20.1082 98.2448 20.1082C97.7803 20.1082 97.4043 19.817 97.4043 18.6521C97.4043 17.0839 97.6255 16.0534 97.6255 13.9252Z" fill="black"/>
<path d="M105.62 20.4218C105.133 20.4218 104.757 20.2426 104.757 19.5706V11.3489C105.332 11.1697 105.62 11.0129 106.04 11.0129C106.482 11.0129 106.836 11.3489 106.836 11.9986V19.3689C106.836 20.1306 106.615 20.4218 106.018 20.4218V20.6235C106.018 20.6235 107.257 20.5563 109.314 20.5563C111.503 20.5563 112.963 20.6235 112.963 20.6235V20.4218C112.101 20.4218 111.747 20.2426 111.747 19.2345V12.581C111.747 10.52 110.729 9.4223 108.96 9.4223C107.234 9.4223 106.062 10.6768 104.757 11.1697V9.4223C104.757 9.4223 101.948 10.52 98.5859 10.52L98.6744 10.6992C99.4707 10.6992 99.8467 11.0129 99.8467 11.8866V18.8537C99.8467 19.817 99.4485 20.4218 98.5859 20.4218V20.6235C98.5859 20.6235 100.112 20.5563 102.324 20.5563C104.558 20.5563 105.62 20.6235 105.62 20.6235V20.4218Z" fill="black"/>
<path d="M118.971 14.9557V3.79932C118.971 3.79932 116.162 4.94183 112.8 4.94183L112.888 5.14346C113.685 5.14346 114.061 5.41228 114.061 6.28597V18.8537C114.061 19.817 113.663 20.4218 112.8 20.4218V20.6235C112.8 20.6235 114.326 20.5563 116.538 20.5563C118.772 20.5563 119.834 20.6235 119.834 20.6235V20.4218C119.347 20.4218 118.971 20.2426 118.971 19.5706V15.1349C119.347 15.1573 119.635 15.4261 119.767 15.7398L120.984 18.5176C121.78 20.3546 123.284 21.0715 125.12 21.0715C127 21.0715 128.217 20.2874 128.217 20.2874V20.1082C127.465 20.1082 127.089 19.5706 126.536 18.6745L122.599 12.2002C123.528 11.0577 124.656 10.072 126.868 10.072V9.87035H121.028V10.072C122.223 10.072 122.798 10.4528 122.798 11.0801C122.798 11.4609 122.599 11.909 122.2 12.4242L120.254 14.9557H118.971Z" fill="black"/>
<path d="M6.5313 20.4857H0V3.61523H6.14569C7.59173 3.61523 8.78873 4.05708 9.7367 4.94078C10.7007 5.82447 11.1827 6.9331 11.1827 8.26668C11.1827 9.05397 10.998 9.74485 10.6284 10.3393C10.2589 10.9338 9.8572 11.3676 9.42339 11.6408C10.0821 11.9461 10.6284 12.4441 11.0622 13.135C11.5121 13.8098 11.7371 14.6373 11.7371 15.6174C11.7371 17.0634 11.239 18.2363 10.2428 19.1361C9.26272 20.0359 8.02554 20.4857 6.5313 20.4857ZM2.48238 5.8566V10.8455H5.85648C6.6759 10.8455 7.33466 10.6285 7.83274 10.1947C8.34689 9.76092 8.60396 9.1343 8.60396 8.31488C8.60396 7.55972 8.34689 6.96524 7.83274 6.53142C7.31859 6.08154 6.65984 5.8566 5.85648 5.8566H2.48238ZM2.48238 13.0145V18.2926H6.26619C7.16595 18.2926 7.86487 18.0435 8.36295 17.5455C8.8771 17.0313 9.13418 16.3886 9.13418 15.6174C9.15025 14.8622 8.89317 14.2437 8.36295 13.7616C7.8488 13.2636 7.14988 13.0145 6.26619 13.0145H2.48238Z" fill="black"/>
<path d="M16.9439 20.7509C15.6746 20.7509 14.6544 20.4134 13.8832 19.7386C13.1119 19.0477 12.7263 18.1962 12.7263 17.1839C12.7263 16.236 13.0637 15.4728 13.7385 14.8944C14.4294 14.316 15.3131 14.0268 16.3896 14.0268H18.8961C19.2496 14.0268 19.5227 13.9384 19.7155 13.7616C19.9244 13.5688 20.0288 13.3198 20.0288 13.0145C20.0288 12.5968 19.8119 12.2192 19.3781 11.8818C18.9443 11.5283 18.3418 11.3516 17.5706 11.3516C16.237 11.3516 15.3131 11.9621 14.799 13.1832L13.0878 12.0746C13.4574 11.2391 14.0197 10.5643 14.7749 10.0501C15.5461 9.53598 16.478 9.27891 17.5706 9.27891C19.0487 9.27891 20.2136 9.70469 21.0652 10.5562C21.9167 11.3917 22.3425 12.3959 22.3425 13.5688V20.4857H20.2216V19.2807C19.9806 19.6503 19.5629 19.9877 18.9684 20.2929C18.39 20.5982 17.7152 20.7509 16.9439 20.7509ZM17.1368 18.7746C18.0365 18.7746 18.7515 18.5175 19.2817 18.0034C19.8119 17.4732 20.077 16.7903 20.077 15.9548V15.8102H16.6547C16.2049 15.8102 15.8353 15.9468 15.5461 16.2199C15.2569 16.477 15.1123 16.8064 15.1123 17.208C15.1123 17.6579 15.289 18.0355 15.6425 18.3408C16.012 18.63 16.5101 18.7746 17.1368 18.7746Z" fill="black"/>
<path d="M30.8674 20.6304H29.2767C28.0396 20.6304 27.0595 20.301 26.3365 19.6422C25.6295 18.9835 25.276 18.0114 25.276 16.726V11.5444H23.348V9.88143H23.4203C24.1112 9.88143 24.6896 9.62435 25.1555 9.1102C25.6375 8.59605 25.8785 7.87303 25.8785 6.94114V6.89294H27.5656V9.54402H30.8674V11.5444H27.5656V16.5091C27.5656 17.2 27.7504 17.7061 28.1199 18.0275C28.5055 18.3488 28.9875 18.5095 29.566 18.5095H30.8674V20.6304Z" fill="black"/>
<path d="M36.2104 20.7509C34.9411 20.7509 33.9208 20.4134 33.1496 19.7386C32.3784 19.0477 31.9928 18.1962 31.9928 17.1839C31.9928 16.236 32.3302 15.4728 33.005 14.8944C33.6959 14.316 34.5796 14.0268 35.6561 14.0268H38.1626C38.516 14.0268 38.7892 13.9384 38.982 13.7616C39.1909 13.5688 39.2953 13.3198 39.2953 13.0145C39.2953 12.5968 39.0784 12.2192 38.6446 11.8818C38.2108 11.5283 37.6083 11.3516 36.837 11.3516C35.5035 11.3516 34.5796 11.9621 34.0654 13.1832L32.3543 12.0746C32.7238 11.2391 33.2862 10.5643 34.0413 10.0501C34.8126 9.53598 35.7445 9.27891 36.837 9.27891C38.3152 9.27891 39.4801 9.70469 40.3316 10.5562C41.1832 11.3917 41.609 12.3959 41.609 13.5688V20.4857H39.4881V19.2807C39.2471 19.6503 38.8294 19.9877 38.2349 20.2929C37.6565 20.5982 36.9816 20.7509 36.2104 20.7509ZM36.4032 18.7746C37.303 18.7746 38.018 18.5175 38.5482 18.0034C39.0784 17.4732 39.3435 16.7903 39.3435 15.9548V15.8102H35.9212C35.4713 15.8102 35.1018 15.9468 34.8126 16.2199C34.5234 16.477 34.3788 16.8064 34.3788 17.208C34.3788 17.6579 34.5555 18.0355 34.909 18.3408C35.2785 18.63 35.7766 18.7746 36.4032 18.7746Z" fill="black"/>
<path d="M46.035 20.4857H43.7455V9.54402H45.8904V10.7973C46.1314 10.4116 46.5411 10.0662 47.1196 9.76092C47.698 9.43958 48.3728 9.27891 49.144 9.27891C50.4133 9.27891 51.4497 9.68862 52.253 10.508C53.0724 11.3275 53.4822 12.3558 53.4822 13.5929V20.4857H51.1926V14.075C51.1926 13.2877 50.9677 12.653 50.5178 12.171C50.0679 11.6729 49.4573 11.4239 48.6861 11.4239C47.9149 11.4239 47.2802 11.689 46.7822 12.2192C46.2841 12.7333 46.035 13.4242 46.035 14.2919V20.4857Z" fill="black"/>
<path d="M59.2897 20.7509C58.0204 20.7509 57.0001 20.4134 56.2289 19.7386C55.4577 19.0477 55.0721 18.1962 55.0721 17.1839C55.0721 16.236 55.4095 15.4728 56.0843 14.8944C56.7752 14.316 57.6589 14.0268 58.7354 14.0268H61.2418C61.5953 14.0268 61.8685 13.9384 62.0613 13.7616C62.2701 13.5688 62.3746 13.3198 62.3746 13.0145C62.3746 12.5968 62.1577 12.2192 61.7239 11.8818C61.29 11.5283 60.6875 11.3516 59.9163 11.3516C58.5827 11.3516 57.6589 11.9621 57.1447 13.1832L55.4336 12.0746C55.8031 11.2391 56.3655 10.5643 57.1206 10.0501C57.8918 9.53598 58.8237 9.27891 59.9163 9.27891C61.3945 9.27891 62.5593 9.70469 63.4109 10.5562C64.2625 11.3917 64.6882 12.3959 64.6882 13.5688V20.4857H62.5674V19.2807C62.3264 19.6503 61.9086 19.9877 61.3141 20.2929C60.7357 20.5982 60.0609 20.7509 59.2897 20.7509ZM59.4825 18.7746C60.3822 18.7746 61.0972 18.5175 61.6275 18.0034C62.1577 17.4732 62.4228 16.7903 62.4228 15.9548V15.8102H59.0005C58.5506 15.8102 58.1811 15.9468 57.8918 16.2199C57.6026 16.477 57.458 16.8064 57.458 17.208C57.458 17.6579 57.6348 18.0355 57.9882 18.3408C58.3578 18.63 58.8559 18.7746 59.4825 18.7746Z" fill="black"/>
</svg>
