<svg width="137" height="32" viewBox="0 0 137 32" fill="none" xmlns="http://www.w3.org/2000/svg">
<path fill-rule="evenodd" clip-rule="evenodd" d="M18.2098 4.13878L19.5369 7.33843C20.4861 9.62676 22.2486 11.4381 24.4448 12.4135L27.9385 13.9651C30.7061 15.1942 30.7061 19.1638 27.9385 20.3929L24.3323 21.9945C22.1911 22.9454 20.4601 24.692 19.4946 26.9042L18.1846 29.9066L18.1845 29.9068C16.9663 32.6977 13.048 32.6979 11.8298 29.9067L11.8298 29.9066L10.5196 26.9042L10.5196 26.9041C9.55415 24.6919 7.82319 22.9454 5.68205 21.9945L2.07578 20.3929C-0.691954 19.1638 -0.691893 15.1942 2.07576 13.9651L5.5694 12.4135C7.76562 11.4381 9.52817 9.62675 10.4773 7.33841L11.8045 4.13879L11.8045 4.13874C12.9952 1.26818 17.0192 1.26824 18.2098 4.13878ZM15.0071 7.10012L14.2579 8.9065C12.9149 12.1443 10.4048 14.7443 7.23067 16.154L4.9228 17.179L7.34329 18.254C10.4378 19.6283 12.9042 22.1357 14.2708 25.2671L14.2708 25.2672L15.0071 26.9546L15.7434 25.2672L15.7435 25.2671C17.1101 22.1357 19.5764 19.6283 22.671 18.254L25.0915 17.179L22.7836 16.154C19.6094 14.7443 17.0994 12.1443 15.7564 8.90654L15.0071 7.10012Z" fill="#30303B"/>
<path d="M121.786 19.758C122.412 22.6878 124.732 24.1903 127.678 24.1903C129.888 24.1903 131.545 23.1762 132.429 21.8615L135.707 23.8147C134.013 26.3689 131.251 27.909 127.642 27.909C121.565 27.909 117.625 23.6645 117.625 18.0302C117.625 12.471 121.565 8.15137 127.347 8.15137C132.834 8.15137 136.59 12.6588 136.59 18.0677C136.59 18.6312 136.517 19.2321 136.443 19.758H121.786ZM121.75 16.4526H132.576C132.024 13.2222 129.704 11.8324 127.31 11.8324C124.327 11.8324 122.302 13.6354 121.75 16.4526Z" fill="#30303B"/>
<path d="M111.885 27.4202V0H115.862V27.4202H111.885Z" fill="#30303B"/>
<path d="M100.843 23.5898H109.792V27.4211H95.4299V24.7167L104.047 12.4715H95.7982V8.64014H109.424V11.3446L100.843 23.5898Z" fill="#30303B"/>
<path d="M85.0836 23.5898H94.0323V27.4211H79.6702V24.7167L88.2874 12.4715H80.0384V8.64014H93.664V11.3446L85.0836 23.5898Z" fill="#30303B"/>
<path d="M73.5612 8.63967H77.5384V27.4207H73.5612V24.7162C72.1618 26.707 69.9891 27.909 67.1167 27.909C62.1084 27.909 57.947 23.5893 57.947 18.0302C57.947 12.4334 62.1084 8.15137 67.1167 8.15137C69.9891 8.15137 72.1618 9.35335 73.5612 11.3066V8.63967ZM67.7427 24.0401C71.0571 24.0401 73.5612 21.5234 73.5612 18.0302C73.5612 14.5369 71.0571 12.0202 67.7427 12.0202C64.4284 12.0202 61.9242 14.5369 61.9242 18.0302C61.9242 21.5234 64.4284 24.0401 67.7427 24.0401Z" fill="#30303B"/>
<path d="M52.2062 1.12744H56.1834V27.4208H52.2062V24.7164C50.8069 26.7071 48.6341 27.9091 45.7617 27.9091C40.7534 27.9091 36.592 23.5895 36.592 18.0303C36.592 12.4336 40.7534 8.15153 45.7617 8.15153C48.6341 8.15153 50.8069 9.35351 52.2062 11.3067V1.12744ZM46.3877 24.0402C49.7021 24.0402 52.2062 21.5236 52.2062 18.0303C52.2062 14.5371 49.7021 12.0204 46.3877 12.0204C43.0734 12.0204 40.5692 14.5371 40.5692 18.0303C40.5692 21.5236 43.0734 24.0402 46.3877 24.0402Z" fill="#30303B"/>
</svg>
