<svg width="53" height="45" viewBox="0 0 53 45" fill="none" xmlns="http://www.w3.org/2000/svg">
<ellipse cx="31.8461" cy="29.1736" rx="9.29828" ry="9.18195" fill="black"/>
<path d="M43.2363 1.85938C43.2363 8.3842 40.8021 17.4338 31.9622 17.4338C23.1222 17.4338 20.688 8.39026 20.688 1.85938L43.2363 1.85938Z" fill="black"/>
<path d="M19.0615 44.631L1.99001e-06 44.631L1.95121e-06 43.6126C1.60445e-06 36.1841 -5.30531e-05 22.2738 12.0967 18.3496C2.1992 15.4642 3.79905e-07 9.96683 3.31491e-08 2.53827L0 1.85938L19.0615 1.85938L19.0615 44.631Z" fill="black"/>
<path d="M53.0001 0V3.71927H52.2562V1.30706L51.1866 3.03386H51.0997L50.0301 1.31237V3.71927H49.2808V0H50.0518L51.1431 1.75868L52.2291 0H53.0001Z" fill="black"/>
<path d="M49.0488 0V0.701348H48.025V3.71927H47.2776V0.701348H46.2593V0H49.0488Z" fill="black"/>
</svg>
