<svg width="40" height="55" viewBox="0 0 40 55" fill="none" xmlns="http://www.w3.org/2000/svg">
<path d="M39.907 11.0698V7.16279H31.8139V3.90698H39.7209V0H0V3.90698H12.3721V7.16279H0.186044V11.0698H12.3721V14.3256H0.186044V18.2326H12.3721V38.3256H2.88372V40.2791C2.88372 44.093 4.65117 47.814 7.81396 50.5117C10.5116 52.7442 13.9535 54.0465 17.4884 54.0465C18.3256 54.0465 19.1628 53.9535 20 53.8605C27.1628 52.5582 32.186 46.0465 31.907 38.5116V18.4186H40V14.3256H31.907V11.0698H39.907ZM27.907 7.16279H24V3.90698H27.907V7.16279ZM16.186 3.81395H20.093V7.06977H16.186V3.81395ZM16.186 11.0698H20.093V14.3256H16.186V11.0698ZM20.093 18.2326V38.6047V38.6977C20.186 40.2791 19.5349 41.9535 17.7674 42.2326C17.2093 42.3256 16.6512 42.2326 16.186 42.0465V38.9768V18.2326H20.093V18.2326ZM27.907 38.4186C28.093 44.093 24.4651 48.9303 19.1628 49.8605C16.093 50.4186 12.6512 49.4884 10.2326 47.4419C8.55813 46.0465 7.34883 44.1861 6.97674 42.2326H11.0698C11.4419 43.0698 12 43.814 12.7442 44.4651C14.0465 45.5814 15.7209 46.1396 17.3953 46.1396C17.7674 46.1396 18.1395 46.1396 18.5116 46.0465C21.9535 45.3954 24.186 42.3256 24 38.5116V18.2326H27.907V38.4186ZM27.907 14.3256H24V11.0698H27.907V14.3256Z" fill="black" fill-opacity="0.9"/>
</svg>
