<svg width="51" height="45" viewBox="0 0 51 45" fill="none" xmlns="http://www.w3.org/2000/svg">
<g clip-path="url(#clip0_462_197)">
<path d="M49.3069 35.6719C48.8094 32.1529 48.1149 28.8874 47.3859 25.448C46.4598 21.1188 45.1791 16.8891 43.7506 12.7041C43.0167 10.6066 42.2926 8.51906 41.4011 6.42656C40.4898 4.175 39.1303 2.00297 36.9088 0.820035C35.7906 0.213655 34.5001 -0.0348609 33.2342 0.024783C31.6481 0.0595752 30.2886 0.641103 29.1507 1.5457C27.3528 0.154011 25.082 -0.437457 22.5157 0.357795C21.7178 0.621222 21.0084 1.01885 20.373 1.50594C17.2747 -0.845023 12.7233 -0.402665 10.1915 2.79822C9.08813 4.0756 8.433 5.67107 7.79758 7.21187C5.19678 13.9765 3.12304 20.9449 1.60098 28.0325C1.04437 30.5624 0.537021 32.8985 0.142961 35.5179C-0.127956 37.5408 -0.0836237 39.8917 1.00004 41.7755C2.13296 43.7885 4.36433 44.9615 6.64003 44.9565C18.736 44.9565 30.832 44.9565 42.928 44.9565C48.0361 44.7477 50.031 40.2595 49.3069 35.6719ZM20.245 4.677C20.4223 4.94043 20.5848 5.2138 20.7326 5.48717C21.8606 7.92262 22.9246 10.4277 23.7373 13.0073C23.6979 13.1415 23.6585 13.2757 23.6142 13.4049C22.9935 15.5222 22.1266 17.57 21.4715 19.6824C20.5454 22.7441 19.7376 26.1687 19.0184 29.3C18.6342 30.9104 18.3141 32.5357 18.0333 34.1709C17.6983 35.9552 17.5013 37.7247 17.8658 39.5836C18.0826 40.846 18.6638 41.9693 19.4815 42.859C19.3879 42.859 19.2894 42.859 19.1958 42.859L15.4719 42.8043C12.615 42.6751 11.1077 40.3739 11.2752 37.5954C11.3195 35.8061 11.8613 34.146 12.3293 32.3567C13.2208 28.8477 14.2503 24.9857 15.1369 21.4966L16.9496 14.2498C17.5604 11.8442 18.2155 9.4336 19.0431 7.1572C19.3583 6.29236 19.7425 5.4474 20.24 4.68695L20.245 4.677ZM24.8899 17.6446C25.6584 21.8544 27.205 28.0176 28.2099 32.2374C28.471 33.4303 28.9586 34.5785 29.1409 35.7863C29.8108 39.0766 29.0029 42.4763 25.2495 42.8093C25.1707 42.8093 25.0919 42.8093 25.0131 42.8093C24.7323 42.8043 24.4515 42.8043 24.1757 42.7944C19.1219 42.2427 19.7869 36.8002 20.9641 33.147C21.5158 31.0297 22.0084 28.8974 22.565 26.78C23.097 24.6577 23.624 22.5304 24.1215 20.4031C24.3629 19.3096 24.5599 18.2062 24.7816 17.1078C24.8161 17.2867 24.8604 17.4656 24.8899 17.6495V17.6446ZM34.0912 42.8043C32.7071 42.8292 31.3279 42.8491 29.9438 42.864C31.5693 41.02 32.0717 38.2018 31.5988 35.3886C31.0668 31.6211 30.1457 27.9381 29.1852 24.265C28.2789 20.5373 26.8455 16.9885 25.7027 13.3403C26.2494 11.4565 26.9243 9.60756 27.609 7.80831C27.9784 6.7546 28.4759 5.63628 29.131 4.66706C29.6187 5.41261 29.9979 6.24266 30.2886 7.06276C32.3032 12.9029 33.4016 19.0611 35.0567 25.0205C35.7069 27.4262 36.4064 29.8219 37.0368 32.2325C38.3077 36.1044 39.6672 42.1284 34.0863 42.7994L34.0912 42.8043ZM26.2002 2.29125C26.742 2.45527 27.2297 2.7187 27.6631 3.05171C26.7371 4.22968 26.0376 5.63131 25.5894 7.03791C25.2594 7.93754 24.9786 8.84214 24.7077 9.74673C24.087 7.3908 23.3876 4.91061 21.836 2.96721C23.097 2.09741 24.7077 1.8141 26.1953 2.28628L26.2002 2.29125ZM6.64003 42.7994C3.05408 42.5956 1.92116 39.3848 2.61569 35.8956C3.70921 31.1738 5.1426 26.1985 6.30508 21.4866L8.11775 14.2399C8.72855 11.8343 9.38367 9.42366 10.2112 7.14725C10.6053 6.07366 11.088 5.01499 11.7924 4.13027C13.0878 2.39563 15.3389 1.63517 17.3634 2.29622C17.8954 2.46521 18.3781 2.74355 18.8116 3.0865C18.0579 4.06068 17.4668 5.17901 17.0137 6.31721C14.1912 13.3403 12.0534 20.6367 10.4427 28.0325C9.89102 30.5326 9.36889 32.9681 8.97976 35.5179C8.55614 38.1024 8.96498 40.9653 10.6299 42.8541C10.5412 42.8541 10.4526 42.8541 10.3639 42.8541L6.64003 42.7994ZM42.933 42.8043C41.5538 42.8292 40.1696 42.8491 38.7855 42.864C40.411 41.02 40.9134 38.2018 40.4405 35.3886C40.2337 34.161 40.0317 32.819 39.81 31.5913C38.2289 22.8833 35.8497 14.3542 32.4608 6.17307C32.0077 5.01002 31.3969 3.93643 30.6531 3.02189C31.3969 2.46024 32.2638 2.09741 33.2982 2.07256C36.4064 1.86877 38.3569 4.58754 39.214 7.31128C39.9184 9.31432 40.4947 11.4267 41.0218 13.5341C42.1005 17.7639 43.0463 22.0383 44.2432 26.2432C44.7506 28.0922 45.5239 30.7414 45.9722 32.5804C47.2824 36.3578 48.2873 42.193 42.933 42.8043Z" fill="black"/>
<path d="M46.1103 5.30775V1.93092H47.8036C47.9395 1.93092 48.0874 1.97058 48.2473 2.04989C48.4073 2.12615 48.5431 2.24512 48.6548 2.40679C48.7695 2.56541 48.8269 2.76674 48.8269 3.01078C48.8269 3.25786 48.768 3.46834 48.6503 3.64222C48.5326 3.81304 48.3892 3.94269 48.2202 4.03115C48.0542 4.11961 47.8972 4.16384 47.7493 4.16384H46.5268V3.61476H47.5229C47.6225 3.61476 47.7297 3.56443 47.8444 3.46377C47.9621 3.3631 48.021 3.21211 48.021 3.01078C48.021 2.80335 47.9621 2.66303 47.8444 2.58982C47.7297 2.51661 47.6286 2.48 47.541 2.48H46.8438V5.30775H46.1103ZM48.1296 3.71543L48.9627 5.30775H48.1568L47.3418 3.71543H48.1296ZM47.378 7.32104C46.877 7.32104 46.4076 7.22648 45.9699 7.03735C45.5322 6.84822 45.1474 6.58589 44.8153 6.25034C44.4833 5.91479 44.2237 5.52586 44.0366 5.08355C43.8494 4.64123 43.7559 4.16689 43.7559 3.66052C43.7559 3.15415 43.8494 2.67981 44.0366 2.23749C44.2237 1.79518 44.4833 1.40625 44.8153 1.0707C45.1474 0.735155 45.5322 0.472818 45.9699 0.283691C46.4076 0.0945635 46.877 0 47.378 0C47.8791 0 48.3485 0.0945635 48.7861 0.283691C49.2238 0.472818 49.6087 0.735155 49.9407 1.0707C50.2727 1.40625 50.5323 1.79518 50.7195 2.23749C50.9066 2.67981 51.0002 3.15415 51.0002 3.66052C51.0002 4.16689 50.9066 4.64123 50.7195 5.08355C50.5323 5.52586 50.2727 5.91479 49.9407 6.25034C49.6087 6.58589 49.2238 6.84822 48.7861 7.03735C48.3485 7.22648 47.8791 7.32104 47.378 7.32104ZM47.378 6.44252C47.8851 6.44252 48.3469 6.31745 48.7635 6.06731C49.18 5.81718 49.5121 5.48163 49.7596 5.06067C50.0071 4.63971 50.1309 4.17299 50.1309 3.66052C50.1309 3.14805 50.0071 2.68133 49.7596 2.26037C49.5121 1.83941 49.18 1.50386 48.7635 1.25373C48.3469 1.00359 47.8851 0.878525 47.378 0.878525C46.8709 0.878525 46.4091 1.00359 45.9925 1.25373C45.576 1.50386 45.244 1.83941 44.9964 2.26037C44.7489 2.68133 44.6252 3.14805 44.6252 3.66052C44.6252 4.17299 44.7489 4.63971 44.9964 5.06067C45.244 5.48163 45.576 5.81718 45.9925 6.06731C46.4091 6.31745 46.8709 6.44252 47.378 6.44252Z" fill="black"/>
</g>
<defs>
<clipPath id="clip0_462_197">
<rect width="51" height="45" fill="white"/>
</clipPath>
</defs>
</svg>
