<svg width="130" height="40" viewBox="0 0 130 40" fill="none" xmlns="http://www.w3.org/2000/svg">
<rect width="3" height="25" transform="matrix(4.37117e-08 -1 -1 -4.37111e-08 65 40)" fill="#0D0D0D"/>
<rect width="3" height="19" transform="matrix(-1 6.58492e-08 1.16064e-07 1 41 15)" fill="#0D0D0D"/>
<path d="M53.5559 0.0015213L53.5567 0L69 10.1145L67.5692 12.9259L53.5566 3.7484L39.4308 13L38 10.1886L53.5555 0.000602156L53.5559 0.0015213Z" fill="#0D0D0D"/>
<rect width="3" height="19" transform="matrix(-1 6.58492e-08 1.16064e-07 1 68 15)" fill="#0D0D0D"/>
<path d="M125.01 12H122V12.8949H123.043V15.5818H123.967V12.8949H125.01V12Z" fill="#0D0D0D"/>
<path d="M126.47 12H125.263V15.5818H126.15V13.3964L127.029 15.5818H127.743L128.646 13.3893V15.5818H129.534V12H128.339L127.41 14.3017L126.47 12Z" fill="#0D0D0D"/>
<path d="M86.4223 19.1026C85.2392 18.1045 83.5891 17.6055 81.472 17.6055C79.4484 17.6055 77.8294 18.0733 76.5841 18.9466C75.3387 19.8199 74.6227 21.0675 74.467 22.6582H77.7672C77.8917 21.9408 78.2653 21.3794 78.888 20.9427C79.5106 20.5373 80.3201 20.3189 81.3164 20.3189C82.4061 20.3189 83.2778 20.5997 83.9005 21.0987C84.5231 21.5977 84.8345 22.3151 84.8345 23.1884V24.1553H80.8494C78.6078 24.1553 76.9266 24.6231 75.7435 25.4964C74.5604 26.3697 74 27.6485 74 29.2703C74 30.7362 74.5293 31.8902 75.5878 32.7012C76.6464 33.5433 78.0474 33.9487 79.822 33.9487C81.0051 33.9487 82.0013 33.7616 82.8108 33.3249C83.6203 32.8883 84.3363 32.2957 84.959 31.4848L85.0557 33.7616H88.1658V23.3755C88.1658 21.5353 87.5742 20.1006 86.4223 19.1026ZM83.6203 30.206C82.8419 30.9546 81.7523 31.3288 80.3824 31.3288C79.4484 31.3288 78.7323 31.1417 78.203 30.705C77.6738 30.2996 77.4247 29.7382 77.4247 29.052C77.4247 28.2723 77.7049 27.6797 78.2653 27.2742C78.8257 26.8687 79.604 26.6504 80.6626 26.6504H84.8345V27.2118C84.8033 28.4594 84.3986 29.4575 83.6203 30.206Z" fill="#0D0D0D"/>
<path d="M102.59 18.6035C101.438 17.9486 100.131 17.6055 98.6987 17.6055C96.5194 17.6055 94.7759 18.4788 93.4994 20.163V17.7926H90.1681V39.9995H93.5306V31.516C94.0287 32.2645 94.7448 32.8571 95.6165 33.2938C96.4883 33.7304 97.5157 33.9487 98.6987 33.9487C100.131 33.9487 101.438 33.6368 102.59 32.9507C103.711 32.2645 104.614 31.3288 105.268 30.0812C105.891 28.8337 106.233 27.399 106.233 25.7771C106.233 24.1241 105.891 22.6893 105.268 21.4418C104.614 20.1942 103.711 19.2585 102.59 18.6035ZM101.501 29.6134C100.629 30.6115 99.5082 31.1105 98.1383 31.1105C96.7373 31.1105 95.6165 30.6115 94.7759 29.6134C93.9042 28.6153 93.4994 27.3366 93.4994 25.7147C93.4994 24.1553 93.9042 22.9077 94.7759 21.9408C95.6165 20.9739 96.7373 20.4749 98.1383 20.4749C99.5082 20.4749 100.629 20.9739 101.501 21.9408C102.372 22.9389 102.808 24.2176 102.808 25.7771C102.808 27.3366 102.372 28.6153 101.501 29.6134Z" fill="#0D0D0D"/>
<path d="M102.59 18.6035C101.438 17.9486 100.131 17.6055 98.6987 17.6055C96.5194 17.6055 94.7759 18.4788 93.4994 20.163V17.7926H90.1681V39.9995H93.5306V31.516C94.0287 32.2645 94.7448 32.8571 95.6165 33.2938C96.4883 33.7304 97.5157 33.9487 98.6987 33.9487C100.131 33.9487 101.438 33.6368 102.59 32.9507C103.711 32.2645 104.614 31.3288 105.268 30.0812C105.891 28.8337 106.233 27.399 106.233 25.7771C106.233 24.1241 105.891 22.6893 105.268 21.4418C104.614 20.1942 103.711 19.2585 102.59 18.6035ZM101.501 29.6134C100.629 30.6115 99.5082 31.1105 98.1383 31.1105C96.7373 31.1105 95.6165 30.6115 94.7759 29.6134C93.9042 28.6153 93.4994 27.3366 93.4994 25.7147C93.4994 24.1553 93.9042 22.9077 94.7759 21.9408C95.6165 20.9739 96.7373 20.4749 98.1383 20.4749C99.5082 20.4749 100.629 20.9739 101.501 21.9408C102.372 22.9389 102.808 24.2176 102.808 25.7771C102.808 27.3366 102.372 28.6153 101.501 29.6134Z" fill="#0D0D0D"/>
<path d="M120.061 18.604C118.909 17.949 117.601 17.606 116.169 17.606C113.99 17.606 112.246 18.4793 110.97 20.1635V17.7931H107.639V40H111.001V31.5164C111.499 32.265 112.215 32.8576 113.087 33.2942C113.959 33.7309 114.986 33.9492 116.169 33.9492C117.601 33.9492 118.909 33.6373 120.061 32.9512C121.182 32.265 122.085 31.3293 122.738 30.0817C123.361 28.8342 123.704 27.3994 123.704 25.7776C123.704 24.1245 123.361 22.6898 122.738 21.4423C122.085 20.1947 121.182 19.259 120.061 18.604ZM118.971 29.6139C118.1 30.612 116.979 31.111 115.609 31.111C114.208 31.111 113.087 30.612 112.246 29.6139C111.375 28.6158 110.97 27.3371 110.97 25.7152C110.97 24.1557 111.375 22.9082 112.246 21.9413C113.087 20.9744 114.208 20.4754 115.609 20.4754C116.979 20.4754 118.1 20.9744 118.971 21.9413C119.843 22.9394 120.279 24.2181 120.279 25.7776C120.279 27.3371 119.843 28.6158 118.971 29.6139Z" fill="#0D0D0D"/>
<path d="M120.061 18.604C118.909 17.949 117.601 17.606 116.169 17.606C113.99 17.606 112.246 18.4793 110.97 20.1635V17.7931H107.639V40H111.001V31.5164C111.499 32.265 112.215 32.8576 113.087 33.2942C113.959 33.7309 114.986 33.9492 116.169 33.9492C117.601 33.9492 118.909 33.6373 120.061 32.9512C121.182 32.265 122.085 31.3293 122.738 30.0817C123.361 28.8342 123.704 27.3994 123.704 25.7776C123.704 24.1245 123.361 22.6898 122.738 21.4423C122.085 20.1947 121.182 19.259 120.061 18.604ZM118.971 29.6139C118.1 30.612 116.979 31.111 115.609 31.111C114.208 31.111 113.087 30.612 112.246 29.6139C111.375 28.6158 110.97 27.3371 110.97 25.7152C110.97 24.1557 111.375 22.9082 112.246 21.9413C113.087 20.9744 114.208 20.4754 115.609 20.4754C116.979 20.4754 118.1 20.9744 118.971 21.9413C119.843 22.9394 120.279 24.2181 120.279 25.7776C120.279 27.3371 119.843 28.6158 118.971 29.6139Z" fill="#0D0D0D"/>
<path d="M8.59286 11.9292H0V33.7618H3.58036V25.8397H8.43719L12.5779 33.7618H16.563L11.9553 25.06C13.2318 24.6233 14.2592 23.8436 15.0375 22.7207C15.7847 21.6291 16.1894 20.3504 16.1894 18.8844C16.1894 17.5121 15.847 16.2957 15.2243 15.2353C14.6016 14.1748 13.6988 13.3639 12.5779 12.8025C11.426 12.2411 10.0873 11.9292 8.59286 11.9292ZM3.58036 22.7207V15.0481H8.31266C9.58913 15.0481 10.6165 15.4224 11.3637 16.1086C12.1109 16.7948 12.5157 17.7304 12.5157 18.8844C12.5157 20.0696 12.1109 21.0053 11.3637 21.6915C10.6165 22.3777 9.58913 22.7207 8.31266 22.7207H3.58036Z" fill="#0D0D0D"/>
<path d="M17.6176 21.5044C16.9638 22.7519 16.6524 24.1867 16.6524 25.8085C16.6524 27.4304 16.9638 28.8651 17.6487 30.0815C18.3337 31.329 19.2677 32.2647 20.513 32.9509C21.7583 33.6371 23.1905 33.949 24.8717 33.949C26.7708 33.949 28.3587 33.4499 29.6351 32.3895C30.9116 31.3602 31.6899 30.0191 32.0013 28.3972H28.6389C28.3898 29.3017 27.9228 29.9879 27.2378 30.4869C26.5218 30.986 25.65 31.2043 24.6226 31.2043C23.315 31.2043 22.2565 30.7988 21.4781 29.9879C20.6687 29.177 20.2328 28.0853 20.1705 26.6818V26.4947H32.1881C32.2503 26.058 32.2815 25.6526 32.2815 25.2159C32.2503 23.6876 31.9079 22.3465 31.2229 21.1925C30.538 20.0696 29.6351 19.1652 28.4521 18.5414C27.269 17.9176 25.9302 17.6057 24.4047 17.6057C22.8792 17.6057 21.5404 17.9488 20.3573 18.6349C19.1743 19.3211 18.2714 20.2568 17.6176 21.5044ZM28.8568 24.0307H20.2951C20.4196 22.9079 20.8555 22.0346 21.6649 21.3484C22.4744 20.6622 23.4084 20.3192 24.5292 20.3192C25.7123 20.3192 26.6774 20.6622 27.4558 21.3172C28.2341 21.9722 28.7011 22.8767 28.8568 24.0307Z" fill="#0D0D0D"/>
</svg>
