<svg width="102" height="36" viewBox="0 0 102 36" fill="none" xmlns="http://www.w3.org/2000/svg">
<mask id="mask0_462_115" style="mask-type:alpha" maskUnits="userSpaceOnUse" x="0" y="8" width="15" height="19">
<path d="M0 8.36084H14.3308V26.7915H0V8.36084Z" fill="white"/>
</mask>
<g mask="url(#mask0_462_115)">
<path fill-rule="evenodd" clip-rule="evenodd" d="M0 20.8874H4.13242C4.13242 22.0984 5.19379 23.2339 7.0517 23.2339C8.7956 23.2339 9.93293 22.4392 9.93293 21.3038C9.93293 20.3198 9.17461 19.8656 7.84777 19.563L5.49731 18.9575C1.51649 17.8977 0.492557 15.7785 0.492557 13.5456C0.492557 10.783 3.22234 8.36084 7.0896 8.36084C10.2361 8.36084 13.7999 9.91248 13.762 13.8862H9.55361C9.55361 12.6373 8.45418 11.8804 7.20315 11.8804C5.83826 11.8804 4.89043 12.6373 4.89043 13.7347C4.89043 14.6431 5.76277 15.1729 6.78624 15.4L9.62957 16.1569C13.6104 17.1788 14.3308 19.6765 14.3308 21.3038C14.3308 24.899 10.729 26.7915 7.1272 26.7915C3.6015 26.7915 0.0756482 24.672 0 20.8874Z" fill="black" fill-opacity="0.9"/>
</g>
<path fill-rule="evenodd" clip-rule="evenodd" d="M44.5119 8.73926L38.1427 26.4127H34.4273L30.2946 14.3403L26.3519 26.4127H22.6746L16.1157 8.73926H20.8546L24.608 20.1304L28.3612 8.73926H32.2661L36.0193 20.1304L39.7727 8.73926H44.5119Z" fill="black" fill-opacity="0.9"/>
<path fill-rule="evenodd" clip-rule="evenodd" d="M53.9659 3.34267C53.533 1.939 54.3902 0.551412 55.7654 0.128656C57.174 -0.304362 58.5976 0.382463 59.0305 1.78598C59.4529 3.1555 58.6736 4.55687 57.2648 4.98973C55.8897 5.41249 54.3883 4.71203 53.9659 3.34267Z" fill="black" fill-opacity="0.9"/>
<path fill-rule="evenodd" clip-rule="evenodd" d="M51.348 8.73926H55.7457L48.676 26.4127H44.2783L51.348 8.73926Z" fill="black" fill-opacity="0.9"/>
<path fill-rule="evenodd" clip-rule="evenodd" d="M69.0935 26.5041L64.4303 14.3936L59.7292 26.5041H54.9902L62.383 8.83057H66.4017L73.8704 26.5041H69.0935Z" fill="black" fill-opacity="0.9"/>
<path fill-rule="evenodd" clip-rule="evenodd" d="M79.9847 19.1998C80.5153 21.8866 82.4108 23.022 84.7995 23.022C87.2635 23.022 89.1214 21.6219 89.3867 19.1998H79.9847ZM93.7846 17.8371C93.7846 23.3627 89.8038 26.8821 84.7235 26.8821C79.6812 26.8821 75.4351 23.3247 75.4351 17.686C75.4351 12.1606 79.4538 8.45166 84.7616 8.45166C87.9839 8.45166 91.0929 9.81413 92.7232 12.3876L89.8038 14.6204C88.7422 13.1822 86.9224 12.4254 84.989 12.4254C82.3731 12.4254 80.4772 13.6744 79.9847 16.1343H93.6706C93.7467 16.7777 93.7846 17.3453 93.7846 17.8371Z" fill="black" fill-opacity="0.9"/>
<path fill-rule="evenodd" clip-rule="evenodd" d="M97.6025 35.9654H102V8.83057H97.6025V35.9654Z" fill="black" fill-opacity="0.9"/>
</svg>
