<svg width="24" height="24" viewBox="0 0 24 24" fill="none" xmlns="http://www.w3.org/2000/svg">
<path fill-rule="evenodd" clip-rule="evenodd" d="M21.8315 3.93101C23.0951 6.01184 24 8.86519 24 12.0011C24 15.137 23.0951 17.9904 21.8315 20.0712C21.1697 21.1611 20.375 22.0524 19.2036 22.7423C17.2046 23.9196 14.5407 24.0101 11.8844 23.9992C9.29745 23.9887 6.71767 23.9077 4.76617 22.7427C3.61594 22.0559 2.83362 21.1663 2.16848 20.0709C0.90491 17.9901 5.66762e-06 15.1368 0 12.0009C1.23422e-07 8.86493 0.90491 6.01156 2.16848 3.93072C2.86221 2.78829 3.71166 1.87761 4.94628 1.19194C6.86193 0.128048 9.36982 0.00590822 11.8844 0.000173082C14.469 -0.0057218 17.0607 0.13396 19.0235 1.19194C20.3095 1.88509 21.1451 2.80068 21.8315 3.93101ZM15.1205 1.79569C14.7968 1.94194 14.4819 2.1315 14.1782 2.36154C16.1526 4.43266 17.5286 7.99989 17.5286 12.0008C17.5286 15.1367 16.6237 17.9901 15.3601 20.0709C14.7306 21.1077 13.9701 21.9651 13.1141 22.5649C15.1538 22.5634 16.7534 21.4088 17.8879 19.5407C19.0443 17.6363 19.6458 14.9743 19.6458 12.0008C19.6458 9.0273 19.0443 6.36529 17.8879 4.46093C17.1135 3.18581 16.1624 2.26662 15.1205 1.79569ZM16.7381 1.43733C16.6166 1.43733 16.4958 1.44327 16.3756 1.45496C17.2212 2.05382 17.9726 2.90442 18.5958 3.93072C19.8593 6.01155 20.7643 8.86489 20.7643 12.0008C20.7643 15.1367 19.8594 17.9901 18.5958 20.0709C17.9662 21.1077 17.2058 21.9651 16.3497 22.5649C18.3892 22.5649 19.9895 21.4085 21.1236 19.541C22.28 17.6366 22.8815 14.9746 22.8815 12.0011C22.8815 9.0276 22.28 6.36558 21.1236 4.46122C19.9626 2.54932 18.4041 1.43734 16.7381 1.43733ZM7.2619 1.43704C5.59582 1.43705 4.0374 2.54908 2.87641 4.46097C1.72 6.36534 1.11849 9.02735 1.11849 12.0009C1.1185 14.9744 1.72 17.6364 2.87641 19.5407C3.89742 21.2221 5.50251 22.6394 7.41435 22.5615C6.56026 21.9618 5.80152 21.1057 5.17315 20.0709C3.90959 17.9901 3.00467 15.1367 3.00467 12.0008C3.00468 8.8649 3.90959 6.01155 5.17315 3.93072C5.80262 2.89411 6.56292 2.0368 7.41884 1.43704H7.2619ZM13.5018 2.95992C13.1474 3.32146 12.8136 3.74246 12.5054 4.21758C13.8481 6.52934 14.5239 9.30444 14.5239 12.0009C14.5239 15.1368 13.619 17.9901 12.3555 20.0709C11.7271 21.1058 10.9683 21.9618 10.1142 22.5615C12.0261 22.6394 13.6312 21.2221 14.6522 19.5407C15.8086 17.6363 16.4101 14.9743 16.4101 12.0008C16.4101 8.12408 15.2854 4.79151 13.5018 2.95992ZM10.2667 1.43704C8.60057 1.43705 7.04207 2.54903 5.88108 4.46093C4.72467 6.36529 4.12317 9.02731 4.12316 12.0008C4.12316 14.9743 4.72467 17.6363 5.88108 19.5407C6.68399 20.8629 7.67702 21.8025 8.76426 22.2564C9.0806 22.1243 9.38888 21.9511 9.6869 21.7393C7.66122 19.6841 6.24033 16.0664 6.24032 12.0008C6.24033 8.8649 7.14524 6.01155 8.4088 3.93072C9.03827 2.89411 9.79857 2.0368 10.6545 1.43704H10.2667ZM13.5023 1.43704C11.8362 1.43705 10.2777 2.54903 9.11673 4.46093C7.96032 6.36529 7.35882 9.02731 7.35881 12.0008C7.35882 15.9605 8.53227 19.3524 10.3826 21.1571C10.7764 20.7745 11.146 20.3195 11.4848 19.7993C10.3138 17.7461 9.47606 15.0037 9.47606 12.0011C9.47607 9.01434 10.297 6.28388 11.4668 4.23308C12.0868 3.14604 12.8833 2.1502 13.8654 1.45477C13.745 1.44303 13.624 1.43704 13.5023 1.43704ZM11.9916 5.11537C11.0712 6.95395 10.5946 9.35412 10.5946 12.0011C10.5946 14.6569 11.0674 17.0643 11.9989 18.9051C12.9255 17.0642 13.4054 14.6568 13.4054 12.0009C13.4054 9.592 13.038 7.16334 11.9916 5.11537Z" fill="#090E3A"/>
</svg>
