<svg width="98" height="36" viewBox="0 0 98 36" fill="none" xmlns="http://www.w3.org/2000/svg">
<path fill-rule="evenodd" clip-rule="evenodd" d="M33.4156 5.89652C35.3497 9.01777 36.7347 13.2978 36.7347 18.0017C36.7347 22.7055 35.3497 26.9856 33.4156 30.1069C32.4027 31.7416 31.1863 33.0786 29.3934 34.1134C26.3337 35.8793 22.2563 36.0151 18.1904 35.9989C14.2308 35.983 10.2822 35.8616 7.29517 34.114C5.53461 33.0839 4.33718 31.7494 3.3191 30.1064C1.38507 26.9852 8.67494e-06 22.7052 0 18.0013C1.88911e-07 13.2974 1.38507 9.01733 3.3191 5.89608C4.38094 4.18243 5.68112 2.81642 7.57085 1.78791C10.503 0.192072 14.3416 0.00886233 18.1904 0.000259623C22.1465 -0.0085827 26.1133 0.20094 29.1177 1.78791C31.086 2.82763 32.3651 4.20102 33.4156 5.89652ZM23.1436 2.69353C22.6481 2.91291 22.1661 3.19725 21.7014 3.54231C24.7234 6.64899 26.8295 11.9998 26.8295 18.0012C26.8295 22.7051 25.4445 26.9852 23.5104 30.1064C22.5468 31.6616 21.3829 32.9477 20.0726 33.8474C23.1946 33.8451 25.643 32.1133 27.3794 29.311C29.1494 26.4545 30.0701 22.4615 30.0701 18.0012C30.0701 13.541 29.1494 9.54794 27.3794 6.69139C26.1942 4.77872 24.7384 3.39992 23.1436 2.69353ZM25.6195 2.156C25.4337 2.156 25.2487 2.16491 25.0648 2.18244C26.359 3.08074 27.5091 4.35663 28.463 5.89608C30.397 9.01733 31.7821 13.2973 31.7821 18.0012C31.7821 22.7051 30.397 26.9852 28.463 30.1064C27.4993 31.6616 26.3354 32.9477 25.0251 33.8474C28.1468 33.8474 30.5963 32.1128 32.3321 29.3115C34.1021 26.4549 35.0228 22.4619 35.0228 18.0017C35.0228 13.5414 34.1021 9.54837 32.3321 6.69183C30.555 3.82398 28.1696 2.15602 25.6195 2.156ZM11.1152 2.15556C8.56504 2.15558 6.1797 3.82361 4.40267 6.69146C2.63266 9.54801 1.71198 13.541 1.71198 18.0013C1.71198 22.4615 2.63266 26.4546 4.40267 29.3111C5.96544 31.8332 8.42222 33.9591 11.3485 33.8422C10.0412 32.9428 8.87989 31.6586 7.91809 30.1064C5.98407 26.9852 4.599 22.7051 4.59899 18.0012C4.599 13.2974 5.98408 9.01732 7.91809 5.89608C8.88158 4.34117 10.0453 3.0552 11.3554 2.15556H11.1152ZM20.6661 4.43988C20.1236 4.98219 19.6127 5.61369 19.141 6.32637C21.1961 9.79401 22.2305 13.9567 22.2305 18.0013C22.2305 22.7051 20.8455 26.9852 18.9114 30.1064C17.9496 31.6586 16.7883 32.9428 15.481 33.8422C18.4073 33.9592 20.8641 31.8331 22.4269 29.311C24.1969 26.4545 25.1176 22.4615 25.1176 18.0012C25.1176 12.1861 23.396 7.18726 20.6661 4.43988ZM15.7143 2.15556C13.1642 2.15557 10.7787 3.82354 9.00167 6.69139C7.23165 9.54794 6.31098 13.541 6.31097 18.0012C6.31097 22.4615 7.23165 26.4545 9.00167 29.311C10.2306 31.2944 11.7506 32.7038 13.4147 33.3846C13.8989 33.1865 14.3708 32.9266 14.8269 32.609C11.7264 29.5262 9.55153 24.0996 9.55153 18.0012C9.55153 13.2974 10.9366 9.01732 12.8706 5.89608C13.8341 4.34117 14.9978 3.0552 16.3079 2.15556H15.7143ZM20.6668 2.15556C18.1167 2.15557 15.7312 3.82354 13.9542 6.69139C12.1842 9.54794 11.2635 13.541 11.2635 18.0012C11.2635 23.9407 13.0596 29.0286 15.8917 31.7357C16.4945 31.1618 17.0602 30.4793 17.5789 29.699C15.7865 26.6191 14.5042 22.5056 14.5042 18.0017C14.5042 13.5215 15.7607 9.42582 17.5512 6.34962C18.5002 4.71905 19.7193 3.2253 21.2226 2.18215C21.0384 2.16455 20.853 2.15556 20.6668 2.15556ZM18.3546 7.67305C16.9457 10.4309 16.2162 14.0312 16.2162 18.0017C16.2162 21.9854 16.9399 25.5964 18.3657 28.3577C19.7839 25.5962 20.5186 21.9852 20.5186 18.0013C20.5186 14.388 19.9561 10.745 18.3546 7.67305Z" fill="#090E3A"/>
<path d="M82.8991 30.8424C81.7281 30.8424 80.8237 30.5758 80.186 30.0426C79.5587 29.5094 79.2345 28.8141 79.2136 27.9567H80.7662C80.7976 28.4586 80.9806 28.8611 81.3151 29.1643C81.6602 29.4571 82.1829 29.6035 82.8834 29.6035C83.5003 29.6035 83.9394 29.4937 84.2008 29.2741C84.4622 29.0441 84.5929 28.7618 84.5929 28.4272C84.5929 28.1136 84.4988 27.8731 84.3106 27.7058C84.1224 27.5385 83.9185 27.4288 83.699 27.3765C83.4899 27.3137 83.0873 27.2196 82.4914 27.0942C81.8745 26.9478 81.3622 26.7962 80.9544 26.6394C80.5467 26.4825 80.2017 26.2473 79.9194 25.9336C79.6371 25.62 79.4959 25.207 79.4959 24.6947C79.4959 23.9942 79.7625 23.4348 80.2958 23.0166C80.8394 22.5984 81.587 22.3893 82.5384 22.3893C83.584 22.3893 84.389 22.6298 84.9536 23.1107C85.5182 23.5916 85.8319 24.2033 85.8946 24.9456H84.342C84.2688 24.5588 84.1015 24.2451 83.8401 24.0046C83.5892 23.7537 83.1657 23.6282 82.5698 23.6282C82.0679 23.6282 81.6968 23.7171 81.4563 23.8948C81.2158 24.0726 81.0956 24.3183 81.0956 24.632C81.0956 24.862 81.1635 25.0449 81.2995 25.1809C81.4354 25.3168 81.6079 25.4213 81.817 25.4945C82.0261 25.5572 82.3345 25.6304 82.7423 25.7141C82.8259 25.7245 82.9514 25.7507 83.1187 25.7925C83.7565 25.9389 84.2845 26.0957 84.7027 26.263C85.1209 26.4303 85.4711 26.6812 85.7534 27.0158C86.0462 27.3503 86.1926 27.7947 86.1926 28.3488C86.1926 29.133 85.905 29.7446 85.33 30.1837C84.755 30.6229 83.9447 30.8424 82.8991 30.8424Z" fill="#090E3A"/>
<path d="M72.51 19.4094H74.0469V26.012L77.5443 22.6244H79.3164L76.2426 25.5572L79.6458 30.6228H77.8266L75.2075 26.5295L74.0469 27.643V30.6228H72.51V19.4094Z" fill="#090E3A"/>
<path d="M68.9085 30.6228H67.3716V22.6245H68.9085V24.1457H68.9399C69.4208 23.0061 70.137 22.4363 71.0885 22.4363C71.3498 22.4363 71.5955 22.452 71.8256 22.4833V23.9575C71.6374 23.9262 71.4648 23.9105 71.308 23.9105C70.6075 23.9105 70.0325 24.151 69.5829 24.6319C69.1333 25.1128 68.9085 25.7297 68.9085 26.4825V30.6228Z" fill="#090E3A"/>
<path d="M62.3781 30.858C61.5626 30.858 60.8516 30.6803 60.2452 30.3248C59.6388 29.9693 59.1735 29.4727 58.8494 28.8349C58.5357 28.1972 58.3789 27.4601 58.3789 26.6236C58.3789 25.7872 58.541 25.0501 58.8651 24.4123C59.1892 23.7745 59.6492 23.2779 60.2452 22.9224C60.8516 22.5565 61.5678 22.3735 62.3938 22.3735C63.2093 22.3735 63.915 22.5513 64.511 22.9068C65.1174 23.2622 65.5774 23.7641 65.8911 24.4123C66.2152 25.0501 66.3772 25.782 66.3772 26.6079C66.3772 27.4444 66.2152 28.1867 65.8911 28.8349C65.567 29.4727 65.1017 29.9693 64.4953 30.3248C63.8993 30.6803 63.1936 30.858 62.3781 30.858ZM59.9786 26.6236C59.9786 27.5019 60.1825 28.2181 60.5902 28.7722C60.998 29.3159 61.5992 29.5877 62.3938 29.5877C63.1779 29.5877 63.7686 29.3159 64.1659 28.7722C64.5737 28.2181 64.7776 27.5019 64.7776 26.6236C64.7776 25.7454 64.5737 25.0344 64.1659 24.4907C63.7686 23.9366 63.1779 23.6595 62.3938 23.6595C61.5992 23.6595 60.998 23.9314 60.5902 24.4751C60.1825 25.0187 59.9786 25.7349 59.9786 26.6236Z" fill="#090E3A"/>
<path d="M44.6125 19.4094H46.4161L48.3922 28.2389H48.4235L50.7446 19.4094H52.5638L54.9006 28.2389H54.932L56.908 19.4094H58.7116L55.9043 30.6228H54.0537L51.6699 21.605H51.6385L49.2704 30.6228H47.4041L44.6125 19.4094Z" fill="#090E3A"/>
<path d="M81.9668 16.5916C81.1408 16.5916 80.4298 16.4086 79.8339 16.0426C79.2379 15.6767 78.7831 15.1749 78.4695 14.5371C78.1663 13.8993 78.0146 13.1674 78.0146 12.3415C78.0146 11.505 78.1715 10.7679 78.4851 10.1302C78.8093 9.49239 79.2693 8.99576 79.8652 8.64028C80.4612 8.2848 81.1617 8.10706 81.9668 8.10706C83.1691 8.10706 84.0997 8.47299 84.7583 9.20486C85.4275 9.93674 85.7621 10.93 85.7621 12.1846C85.7621 12.4878 85.7568 12.6813 85.7464 12.7649H79.5986C79.6195 13.4863 79.8339 14.098 80.2416 14.5998C80.6599 15.0912 81.2453 15.3369 81.9981 15.3369C82.6255 15.3369 83.1064 15.1853 83.441 14.8821C83.786 14.5789 84.0056 14.2496 84.0997 13.8941H85.668C85.4379 14.7096 85.0145 15.3631 84.3976 15.8545C83.7808 16.3459 82.9705 16.5916 81.9668 16.5916ZM84.1624 11.5573C84.1624 10.9195 83.9533 10.3968 83.5351 9.98901C83.1273 9.5708 82.5889 9.36169 81.9197 9.36169C81.2715 9.36169 80.733 9.56557 80.3044 9.97333C79.8757 10.3706 79.6405 10.8986 79.5986 11.5573H84.1624Z" fill="#090E3A"/>
<path d="M70.5862 8.35791H72.2329L74.3344 14.7723H74.3501L76.4203 8.35791H78.0199L75.1656 16.3562H73.4405L70.5862 8.35791Z" fill="#090E3A"/>
<path d="M68.3905 8.35798H69.9274V16.3563H68.3905V8.35798ZM68.2964 5.26843H70.0372V6.93083H68.2964V5.26843Z" fill="#090E3A"/>
<path d="M66.4684 16.4503C65.7575 16.4503 65.2242 16.2778 64.8688 15.9328C64.5237 15.5878 64.3512 14.9761 64.3512 14.0979V9.62822H63.1907V8.3579H64.3512V5.78589H65.8882V8.3579H67.4251V9.62822H65.8882V14.1449C65.8882 14.5527 65.9509 14.8297 66.0763 14.9761C66.2123 15.112 66.4475 15.18 66.7821 15.18C66.9807 15.18 67.2003 15.1591 67.4408 15.1173V16.3562C67.1271 16.419 66.803 16.4503 66.4684 16.4503Z" fill="#090E3A"/>
<path d="M58.1801 16.5759C57.3855 16.5759 56.7477 16.3668 56.2668 15.9486C55.7963 15.5303 55.561 14.9762 55.561 14.2862C55.561 13.7111 55.6917 13.2511 55.9531 12.9061C56.2249 12.5506 56.5961 12.2787 57.0666 12.0905C57.5476 11.8919 58.1592 11.7246 58.9015 11.5887C59.4138 11.4946 59.8007 11.4109 60.0621 11.3378C60.3234 11.2541 60.5326 11.1443 60.6894 11.0084C60.8462 10.862 60.9246 10.6634 60.9246 10.4125C60.9246 9.70149 60.4175 9.34601 59.4034 9.34601C58.7238 9.34601 58.2481 9.46102 57.9762 9.69104C57.7044 9.92105 57.5475 10.3079 57.5057 10.8516H55.9374C55.9792 10.0256 56.2877 9.3617 56.8627 8.85984C57.4378 8.35798 58.3056 8.10706 59.4661 8.10706C60.3653 8.10706 61.0815 8.32662 61.6147 8.76574C62.1584 9.19441 62.4302 9.89492 62.4302 10.8673V14.5371C62.4302 14.8403 62.4563 15.0651 62.5086 15.2115C62.5609 15.3474 62.6602 15.4153 62.8066 15.4153L62.9948 15.3996V16.3406C62.7334 16.4034 62.472 16.4347 62.2106 16.4347C61.8133 16.4347 61.5101 16.3459 61.301 16.1681C61.1024 15.9799 60.9821 15.6663 60.9403 15.2271H60.9089C60.6476 15.6558 60.2868 15.9904 59.8268 16.2308C59.3668 16.4609 58.8179 16.5759 58.1801 16.5759ZM57.1607 14.1764C57.1607 14.9501 57.6155 15.3369 58.5251 15.3369C59.2465 15.3369 59.8268 15.1592 60.2659 14.8037C60.7051 14.4378 60.9246 13.915 60.9246 13.2354V12.0905C60.8096 12.1951 60.6057 12.2944 60.313 12.3885C60.0307 12.4722 59.6491 12.5663 59.1681 12.6708C58.4467 12.8172 57.9292 13.0054 57.6155 13.2354C57.3123 13.455 57.1607 13.7686 57.1607 14.1764Z" fill="#090E3A"/>
<path d="M45.5061 5.14294H47.4822L52.6889 13.7686H52.7203V5.14294H54.4611V16.3563H52.485L47.2626 7.73064H47.2312V16.3563H45.5061V5.14294Z" fill="#090E3A"/>
<g transform="translate(3,0)"><path d="M90.9107 5.14294H92.0605L92.7293 7.50042H92.741L93.4333 5.14294H94.5714V8.58658H93.797V6.14271H93.7735L93.0695 8.58658H92.4008L91.7085 6.14271H91.685V8.58658H90.9107V5.14294ZM87.6841 5.14294H90.5V5.9082H89.5027V8.58658H88.6814V5.9082H87.6841V5.14294Z" fill="#090E3A"/></g>
</svg>
