<svg width="257" height="108" viewBox="0 0 257 108" fill="none" xmlns="http://www.w3.org/2000/svg">
<path d="M9.13508 19.7692C12.2502 18.5224 16.9767 17.0567 20.2688 15.9173L41.9273 8.37654L54.728 3.90895C56.0176 3.45402 57.3543 2.99679 58.6234 2.53582C61.286 1.56891 63.3697 0.722145 66.1435 1.94673C68.5922 3.02761 70.2939 5.41998 70.2879 8.12852C70.3399 11.369 70.3266 14.5769 70.3253 17.8051L70.3205 35.2604L70.3217 50.8723C70.3205 53.5486 70.3809 56.3913 70.283 59.0563C70.1489 62.7153 67.1926 66.591 63.6984 67.7599C56.5252 70.1601 49.3713 73.0556 42.1799 75.3958L42.1908 91.7832C42.1908 94.65 42.3491 97.6994 41.9479 100.525C41.7944 101.608 40.8408 103.025 40.0805 103.789C36.3374 107.555 31.9186 104.888 27.7736 103.359L18.2172 99.8931L11.946 97.6196C11.3845 97.4154 9.45597 96.7555 9.00189 96.5198C8.53668 96.376 8.10085 96.1995 7.66417 95.9832C5.00119 94.6658 2.79399 92.2279 1.87253 89.3852C1.06649 86.8978 1.41445 76.8481 1.41506 73.4441L1.41699 51.4544L1.41325 37.1318C1.41337 34.61 1.38823 32.0829 1.46026 29.5633C1.5862 25.1627 4.98488 21.0753 9.13508 19.7692Z" stroke="white" stroke-width="2.67902"/>
<path d="M9.13549 19.7692C12.2506 18.5224 16.9771 17.0567 20.2692 15.9173L41.9277 8.37653L54.7284 3.90895C56.018 3.45402 57.3547 2.99679 58.6238 2.53582C61.2864 1.56891 63.3701 0.722145 66.1439 1.94673C68.5926 3.02761 70.2943 5.41998 70.2883 8.12852C70.3403 11.369 70.327 14.5769 70.3258 17.8051L70.3209 35.2604L70.3221 50.8723C70.3209 53.5486 70.3814 56.3913 70.2835 59.0563C70.1493 62.7153 67.193 66.591 63.6988 67.7599C56.5256 70.1601 49.3717 73.0556 42.1803 75.3958L42.1755 58.6375C42.1767 55.1487 42.1562 51.7009 42.1562 48.1714C42.1574 44.4725 39.942 40.526 36.565 38.8605C34.2505 37.7192 31.2918 36.8089 28.8268 35.9129L14.6783 30.8015C12.888 30.1674 9.69944 29.3104 8.41648 28.0224C5.65499 25.25 6.80029 22.1304 9.13549 19.7692Z" stroke="white" stroke-width="2.67902"/>
<path d="M9.00172 96.5197C8.33154 95.5855 7.75236 95.5202 7.14091 93.8523C6.68357 92.6014 6.74424 91.2199 7.30951 90.0125C8.53084 87.41 10.8511 86.8482 13.3463 85.9154L18.9076 83.8413L42.1798 75.3958L42.1906 91.7831C42.1906 94.65 42.349 97.6994 41.9477 100.525C41.7942 101.608 40.8406 103.025 40.0804 103.788C36.3372 107.555 31.9185 104.888 27.7735 103.359L18.2171 99.893L11.9458 97.6196C11.3843 97.4153 9.45581 96.7554 9.00172 96.5197Z" stroke="white" stroke-width="2.67902"/>
<path opacity="0.79" d="M106.384 35.0636H108.212L111.508 46.878L114.963 35.0636H116.732L120.067 46.878L123.382 35.0636H125.191L121.072 49.1284H118.982L115.767 37.977L112.572 49.1284H110.483L106.384 35.0636ZM138.33 45.7729C137.767 46.858 136.964 47.7219 135.959 48.3247C134.934 48.9476 133.769 49.249 132.483 49.249C131.177 49.249 130.012 48.9476 129.007 48.3247C127.982 47.7219 127.178 46.858 126.616 45.7729C126.053 44.6879 125.772 43.4623 125.772 42.096C125.772 40.7297 126.053 39.504 126.616 38.419C127.178 37.334 127.982 36.4902 129.007 35.8673C130.012 35.2645 131.177 34.943 132.483 34.943C133.769 34.943 134.934 35.2645 135.959 35.8673C136.964 36.4902 137.767 37.334 138.33 38.419C138.893 39.504 139.194 40.7297 139.194 42.096C139.194 43.4623 138.893 44.6879 138.33 45.7729ZM128.183 44.9692C128.585 45.8131 129.168 46.4561 129.911 46.9383C130.655 47.4205 131.519 47.6416 132.483 47.6416C133.447 47.6416 134.291 47.4205 135.035 46.9383C135.778 46.4561 136.361 45.8131 136.783 44.9692C137.185 44.1254 137.406 43.181 137.406 42.096C137.406 41.0311 137.185 40.0867 136.783 39.2428C136.361 38.399 135.778 37.756 135.035 37.2738C134.291 36.7915 133.447 36.5504 132.483 36.5504C131.519 36.5504 130.655 36.7915 129.911 37.2738C129.168 37.756 128.585 38.399 128.183 39.2428C127.761 40.0867 127.56 41.0311 127.56 42.096C127.56 43.181 127.761 44.1254 128.183 44.9692ZM146.587 35.0636C147.511 35.0636 148.315 35.2444 149.038 35.6061C149.742 35.9677 150.284 36.4701 150.686 37.113C151.068 37.756 151.269 38.5195 151.269 39.3835C151.269 40.368 150.987 41.2119 150.445 41.9353C149.902 42.6586 149.179 43.1408 148.275 43.3819L151.429 49.1284H149.46L146.547 43.7235H142.95V49.1284H141.202V35.0636H146.587ZM142.95 42.1161H146.446C147.371 42.1161 148.094 41.875 148.657 41.3727C149.199 40.8904 149.48 40.2274 149.48 39.3835C149.48 38.5798 149.199 37.9167 148.657 37.4144C148.094 36.9322 147.371 36.671 146.466 36.671H142.95V42.1161ZM153.284 35.0636H155.033V43.0404L162.125 35.0636H164.255L159.111 40.9909L164.657 49.1284H162.567L157.825 42.317L155.033 45.4716V49.1284H153.284V35.0636ZM171.999 45.7529C172.019 46.3757 172.28 46.878 172.803 47.2598C173.325 47.6617 173.988 47.8425 174.812 47.8425C175.535 47.8425 176.118 47.7018 176.56 47.4205C177.002 47.1392 177.243 46.7575 177.243 46.2753C177.243 45.8734 177.123 45.572 176.922 45.351C176.701 45.1501 176.419 44.9893 176.078 44.909C175.736 44.8286 175.254 44.7482 174.631 44.6679C173.747 44.5674 173.024 44.4267 172.461 44.2459C171.899 44.0852 171.436 43.8039 171.095 43.4221C170.733 43.0404 170.572 42.5179 170.572 41.8348C170.572 41.232 170.733 40.7096 171.075 40.2274C171.416 39.7653 171.878 39.4036 172.481 39.1424C173.064 38.8812 173.727 38.7405 174.47 38.7405C175.676 38.7405 176.64 39.0218 177.404 39.5844C178.167 40.147 178.589 40.9507 178.67 41.9955H177.022C176.942 41.4731 176.681 41.0311 176.239 40.6694C175.776 40.3278 175.214 40.147 174.531 40.147C173.827 40.147 173.265 40.3078 172.843 40.5891C172.401 40.8703 172.2 41.2521 172.2 41.7142C172.2 42.0759 172.3 42.3371 172.501 42.5179C172.702 42.7189 172.943 42.8394 173.265 42.8997C173.586 42.9801 174.069 43.0404 174.712 43.1207C175.596 43.2413 176.339 43.3819 176.922 43.5628C177.504 43.7637 177.967 44.0651 178.328 44.4669C178.69 44.8889 178.871 45.4515 178.871 46.1547C178.871 46.7776 178.69 47.3201 178.328 47.7822C177.967 48.2644 177.464 48.6261 176.861 48.8672C176.239 49.1284 175.555 49.249 174.812 49.249C173.466 49.249 172.381 48.9476 171.577 48.3247C170.773 47.7219 170.351 46.858 170.351 45.7529H171.999ZM188.234 39.3835C188.978 39.8054 189.56 40.4082 189.982 41.1918C190.404 41.9955 190.625 42.9198 190.625 44.0048C190.625 45.0496 190.404 45.9538 189.982 46.7374C189.56 47.5411 188.978 48.1439 188.234 48.5859C187.471 49.028 186.627 49.249 185.703 49.249C184.859 49.249 184.156 49.1083 183.573 48.8069C182.97 48.5055 182.508 48.0836 182.186 47.5612V53.1469H180.539V38.8812H181.965L182.186 40.5288C183.03 39.3634 184.216 38.7606 185.703 38.7606C186.647 38.7606 187.491 38.9816 188.234 39.3835ZM187.993 46.7374C188.616 46.0342 188.938 45.13 188.938 44.0048C188.938 42.8997 188.616 41.9955 187.993 41.2923C187.37 40.5891 186.547 40.2274 185.542 40.2274C184.879 40.2274 184.296 40.3881 183.774 40.7096C183.251 41.0311 182.87 41.4731 182.588 42.0357C182.307 42.5983 182.166 43.2413 182.166 43.9646C182.166 44.708 182.307 45.3711 182.588 45.9538C182.87 46.5365 183.251 46.9785 183.774 47.3C184.296 47.6215 184.879 47.7822 185.542 47.7822C186.547 47.7822 187.37 47.4406 187.993 46.7374ZM192.548 41.2521C192.95 40.4685 193.533 39.8657 194.276 39.4237C195 38.9816 195.843 38.7606 196.808 38.7606C197.732 38.7606 198.576 38.9615 199.299 39.3433C200.023 39.7452 200.585 40.3078 201.007 41.0311C201.409 41.7745 201.63 42.6385 201.67 43.623C201.67 43.7838 201.65 44.0048 201.63 44.3263H193.673V44.4669C193.694 45.4716 193.995 46.2753 194.598 46.878C195.18 47.4808 195.944 47.7822 196.908 47.7822C197.632 47.7822 198.255 47.6014 198.777 47.2397C199.299 46.878 199.641 46.3556 199.822 45.6926H201.49C201.289 46.7374 200.786 47.6014 199.983 48.2644C199.179 48.9275 198.194 49.249 197.029 49.249C196.004 49.249 195.12 49.048 194.357 48.606C193.593 48.164 192.99 47.5612 192.568 46.7575C192.146 45.9538 191.946 45.0496 191.946 44.0048C191.946 42.96 192.146 42.0558 192.548 41.2521ZM199.962 42.96C199.882 42.096 199.541 41.4128 198.978 40.9306C198.415 40.4484 197.692 40.2073 196.828 40.2073C196.044 40.2073 195.361 40.4685 194.779 40.9708C194.176 41.4932 193.854 42.1563 193.774 42.96H199.962ZM211.366 39.8858C212.13 40.6493 212.512 41.8147 212.512 43.4221V49.1284H210.864V43.5226C210.864 42.4778 210.623 41.6741 210.141 41.1115C209.659 40.5489 208.975 40.2676 208.091 40.2676C207.127 40.2676 206.363 40.6091 205.821 41.2722C205.258 41.9553 204.997 42.8595 204.997 44.0048V49.1284H203.349V38.8812H204.776L204.997 40.2676C205.761 39.2629 206.886 38.7606 208.373 38.7606C209.618 38.7606 210.603 39.1424 211.366 39.8858ZM224.136 35.0636V49.1284H222.71L222.489 47.4808C221.625 48.6663 220.459 49.249 218.972 49.249C218.008 49.249 217.164 49.048 216.421 48.6261C215.677 48.2242 215.095 47.6215 214.673 46.8178C214.251 46.0342 214.05 45.0898 214.05 44.0048C214.05 42.9801 214.251 42.0759 214.673 41.2722C215.095 40.4886 215.677 39.8657 216.441 39.4237C217.184 38.9816 218.028 38.7606 218.972 38.7606C219.796 38.7606 220.499 38.9214 221.102 39.2228C221.685 39.5241 222.147 39.926 222.489 40.4484V35.0636H224.136ZM220.881 47.3201C221.404 46.9986 221.806 46.5566 222.087 45.994C222.368 45.4314 222.509 44.7683 222.509 44.045C222.509 43.3216 222.368 42.6586 222.087 42.0759C221.806 41.4932 221.404 41.0311 220.881 40.7096C220.359 40.3881 219.776 40.2274 219.133 40.2274C218.108 40.2274 217.285 40.5891 216.662 41.2923C216.039 41.9955 215.738 42.8997 215.738 44.0048C215.738 45.13 216.039 46.0342 216.662 46.7374C217.285 47.4406 218.108 47.7822 219.133 47.7822C219.776 47.7822 220.359 47.6416 220.881 47.3201ZM227.767 35.2243C227.968 35.4252 228.068 35.6864 228.068 35.9878C228.068 36.3093 227.968 36.5504 227.767 36.7514C227.566 36.9523 227.305 37.0527 227.004 37.0527C226.682 37.0527 226.441 36.9523 226.24 36.7514C226.039 36.5504 225.939 36.3093 225.939 35.9878C225.939 35.6864 226.039 35.4252 226.24 35.2243C226.441 35.0234 226.682 34.9229 227.004 34.9229C227.305 34.9229 227.566 35.0234 227.767 35.2243ZM226.18 38.8812H227.827V49.1284H226.18V38.8812ZM237.9 39.8858C238.664 40.6493 239.046 41.8147 239.046 43.4221V49.1284H237.398V43.5226C237.398 42.4778 237.157 41.6741 236.675 41.1115C236.193 40.5489 235.509 40.2676 234.625 40.2676C233.661 40.2676 232.897 40.6091 232.355 41.2722C231.792 41.9553 231.531 42.8595 231.531 44.0048V49.1284H229.884V38.8812H231.31L231.531 40.2676C232.295 39.2629 233.42 38.7606 234.907 38.7606C236.152 38.7606 237.137 39.1424 237.9 39.8858ZM250.67 38.8812V48.6261C250.67 51.7204 248.962 53.2675 245.587 53.2675C244.261 53.2675 243.176 52.9661 242.332 52.3633C241.488 51.7606 241.006 50.9167 240.885 49.7915H242.573C242.694 50.4344 243.035 50.9368 243.598 51.2783C244.14 51.64 244.843 51.8007 245.707 51.8007C247.918 51.8007 249.023 50.7358 249.023 48.5658V47.3603C248.279 48.6261 247.114 49.249 245.506 49.249C244.542 49.249 243.698 49.048 242.955 48.6261C242.211 48.2242 241.629 47.6215 241.207 46.8178C240.785 46.0342 240.584 45.0898 240.584 44.0048C240.584 42.9801 240.785 42.0759 241.207 41.2722C241.629 40.4886 242.211 39.8657 242.975 39.4237C243.718 38.9816 244.562 38.7606 245.506 38.7606C246.33 38.7606 247.034 38.9415 247.636 39.2629C248.219 39.5844 248.681 40.0465 249.023 40.6493L249.244 38.8812H250.67ZM247.415 47.3201C247.938 46.9986 248.34 46.5566 248.621 45.994C248.902 45.4314 249.043 44.7683 249.043 44.045C249.043 43.3216 248.902 42.6586 248.621 42.0759C248.34 41.4932 247.938 41.0311 247.415 40.7096C246.893 40.3881 246.31 40.2274 245.667 40.2274C244.643 40.2274 243.819 40.5891 243.196 41.2923C242.573 41.9955 242.272 42.8997 242.272 44.0048C242.272 45.13 242.573 46.0342 243.196 46.7374C243.819 47.4406 244.643 47.7822 245.667 47.7822C246.31 47.7822 246.893 47.6416 247.415 47.3201ZM252.834 47.3201C253.035 47.1192 253.317 46.9986 253.658 46.9986C253.98 46.9986 254.261 47.1192 254.482 47.3201C254.683 47.521 254.803 47.8023 254.803 48.1238C254.803 48.4654 254.683 48.7467 254.482 48.9476C254.261 49.1485 253.98 49.249 253.658 49.249C253.317 49.249 253.035 49.1485 252.834 48.9476C252.613 48.7467 252.513 48.4654 252.513 48.1238C252.513 47.8023 252.613 47.521 252.834 47.3201ZM107.188 60.0636H109.398L114.381 71.7374L119.303 60.0636H121.473V74.1284H119.766V63.0373L115.104 74.1284H113.557L108.895 63.0373V74.1284H107.188V60.0636ZM133.342 72.6215V74.1284H132.438C131.775 74.1284 131.312 74.0079 131.031 73.7266C130.75 73.4654 130.589 73.0635 130.589 72.5411C129.785 73.6864 128.64 74.249 127.153 74.249C126.008 74.249 125.084 73.9878 124.401 73.4453C123.717 72.9229 123.376 72.1794 123.376 71.2552C123.376 70.2304 123.717 69.4468 124.421 68.8842C125.124 68.3417 126.149 68.0604 127.495 68.0604H130.509V67.3572C130.509 66.6941 130.268 66.1717 129.826 65.79C129.384 65.4283 128.761 65.2274 127.957 65.2274C127.234 65.2274 126.651 65.3881 126.189 65.7096C125.727 66.0311 125.445 66.4329 125.345 66.9553H123.697C123.818 65.9507 124.26 65.1671 125.023 64.6045C125.787 64.0419 126.792 63.7606 128.037 63.7606C129.343 63.7606 130.348 64.0821 131.071 64.7251C131.795 65.368 132.156 66.2722 132.156 67.4577V71.878C132.156 72.3804 132.377 72.6215 132.839 72.6215H133.342ZM130.509 69.4468H127.334C125.807 69.4468 125.043 70.0295 125.043 71.1547C125.043 71.6771 125.244 72.079 125.646 72.3804C126.048 72.7018 126.591 72.8425 127.274 72.8425C128.278 72.8425 129.062 72.5813 129.645 72.0589C130.207 71.5365 130.509 70.8332 130.509 69.9492V69.4468ZM144.132 60.0636V74.1284H142.706L142.485 72.4808C141.621 73.6663 140.455 74.249 138.968 74.249C138.004 74.249 137.16 74.048 136.417 73.6261C135.673 73.2242 135.091 72.6215 134.669 71.8178C134.247 71.0342 134.046 70.0898 134.046 69.0048C134.046 67.9801 134.247 67.0759 134.669 66.2722C135.091 65.4886 135.673 64.8657 136.437 64.4237C137.18 63.9816 138.024 63.7606 138.968 63.7606C139.792 63.7606 140.496 63.9214 141.098 64.2228C141.681 64.5241 142.143 64.926 142.485 65.4484V60.0636H144.132ZM140.877 72.3201C141.4 71.9986 141.802 71.5566 142.083 70.994C142.364 70.4314 142.505 69.7683 142.505 69.045C142.505 68.3216 142.364 67.6586 142.083 67.0759C141.802 66.4932 141.4 66.0311 140.877 65.7096C140.355 65.3881 139.772 65.2274 139.129 65.2274C138.104 65.2274 137.281 65.5891 136.658 66.2923C136.035 66.9955 135.734 67.8997 135.734 69.0048C135.734 70.13 136.035 71.0342 136.658 71.7374C137.281 72.4406 138.104 72.7822 139.129 72.7822C139.772 72.7822 140.355 72.6416 140.877 72.3201ZM146.417 66.2521C146.819 65.4685 147.401 64.8657 148.145 64.4237C148.868 63.9816 149.712 63.7606 150.677 63.7606C151.601 63.7606 152.445 63.9615 153.168 64.3433C153.891 64.7452 154.454 65.3078 154.876 66.0311C155.278 66.7745 155.499 67.6385 155.539 68.623C155.539 68.7838 155.519 69.0048 155.499 69.3263H147.542V69.4669C147.562 70.4716 147.864 71.2753 148.466 71.878C149.049 72.4808 149.813 72.7822 150.777 72.7822C151.5 72.7822 152.123 72.6014 152.646 72.2397C153.168 71.878 153.51 71.3556 153.69 70.6926H155.358C155.157 71.7374 154.655 72.6014 153.851 73.2644C153.047 73.9275 152.063 74.249 150.898 74.249C149.873 74.249 148.989 74.048 148.225 73.606C147.462 73.164 146.859 72.5612 146.437 71.7575C146.015 70.9538 145.814 70.0496 145.814 69.0048C145.814 67.96 146.015 67.0558 146.417 66.2521ZM153.831 67.96C153.751 67.096 153.409 66.4128 152.847 65.9306C152.284 65.4484 151.561 65.2073 150.697 65.2073C149.913 65.2073 149.23 65.4685 148.647 65.9708C148.044 66.4932 147.723 67.1563 147.643 67.96H153.831ZM163.562 70.7529C163.582 71.3757 163.843 71.878 164.365 72.2598C164.888 72.6617 165.551 72.8425 166.375 72.8425C167.098 72.8425 167.681 72.7018 168.123 72.4205C168.565 72.1392 168.806 71.7575 168.806 71.2753C168.806 70.8734 168.685 70.572 168.484 70.351C168.263 70.1501 167.982 69.9893 167.64 69.909C167.299 69.8286 166.817 69.7482 166.194 69.6679C165.31 69.5674 164.586 69.4267 164.024 69.2459C163.461 69.0852 162.999 68.8039 162.658 68.4221C162.296 68.0404 162.135 67.5179 162.135 66.8348C162.135 66.232 162.296 65.7096 162.637 65.2274C162.979 64.7653 163.441 64.4036 164.044 64.1424C164.627 63.8812 165.29 63.7405 166.033 63.7405C167.239 63.7405 168.203 64.0218 168.967 64.5844C169.73 65.147 170.152 65.9507 170.232 66.9955H168.585C168.504 66.4731 168.243 66.0311 167.801 65.6694C167.339 65.3278 166.777 65.147 166.093 65.147C165.39 65.147 164.828 65.3078 164.406 65.5891C163.964 65.8703 163.763 66.2521 163.763 66.7142C163.763 67.0759 163.863 67.3371 164.064 67.5179C164.265 67.7189 164.506 67.8394 164.828 67.8997C165.149 67.9801 165.631 68.0404 166.274 68.1207C167.158 68.2413 167.902 68.3819 168.484 68.5628C169.067 68.7637 169.529 69.0651 169.891 69.4669C170.253 69.8889 170.433 70.4515 170.433 71.1547C170.433 71.7776 170.253 72.3201 169.891 72.7822C169.529 73.2644 169.027 73.6261 168.424 73.8672C167.801 74.1284 167.118 74.249 166.375 74.249C165.028 74.249 163.943 73.9476 163.14 73.3247C162.336 72.7219 161.914 71.858 161.914 70.7529H163.562ZM173.689 60.2243C173.89 60.4252 173.99 60.6864 173.99 60.9878C173.99 61.3093 173.89 61.5504 173.689 61.7514C173.488 61.9523 173.227 62.0527 172.925 62.0527C172.604 62.0527 172.363 61.9523 172.162 61.7514C171.961 61.5504 171.86 61.3093 171.86 60.9878C171.86 60.6864 171.961 60.4252 172.162 60.2243C172.363 60.0234 172.604 59.9229 172.925 59.9229C173.227 59.9229 173.488 60.0234 173.689 60.2243ZM172.102 63.8812H173.749V74.1284H172.102V63.8812ZM190.031 64.8456C190.754 65.569 191.116 66.6941 191.116 68.2212V74.1284H189.468V68.3216C189.468 67.3371 189.247 66.5736 188.825 66.0512C188.403 65.5288 187.801 65.2676 187.037 65.2676C186.173 65.2676 185.49 65.569 185.008 66.1717C184.526 66.7745 184.284 67.5983 184.284 68.6431V74.1284H182.637V68.3216C182.637 67.3371 182.416 66.5736 181.994 66.0512C181.552 65.5288 180.949 65.2676 180.165 65.2676C179.322 65.2676 178.658 65.5891 178.176 66.232C177.694 66.875 177.453 67.6988 177.453 68.7235V74.1284H175.805V63.8812H177.232L177.453 65.2877C178.176 64.283 179.181 63.7606 180.447 63.7606C181.17 63.7606 181.833 63.9415 182.396 64.2629C182.958 64.5844 183.4 65.0666 183.682 65.7096C184.405 64.4237 185.59 63.7606 187.238 63.7606C188.383 63.7606 189.308 64.1223 190.031 64.8456ZM200.724 64.3835C201.467 64.8054 202.05 65.4082 202.472 66.1918C202.894 66.9955 203.115 67.9198 203.115 69.0048C203.115 70.0496 202.894 70.9538 202.472 71.7374C202.05 72.5411 201.467 73.1439 200.724 73.5859C199.96 74.028 199.117 74.249 198.192 74.249C197.348 74.249 196.645 74.1083 196.062 73.8069C195.46 73.5055 194.998 73.0836 194.676 72.5612V78.1469H193.028V63.8812H194.455L194.676 65.5288C195.52 64.3634 196.705 63.7606 198.192 63.7606C199.137 63.7606 199.981 63.9816 200.724 64.3835ZM200.483 71.7374C201.106 71.0342 201.427 70.13 201.427 69.0048C201.427 67.8997 201.106 66.9955 200.483 66.2923C199.86 65.5891 199.036 65.2274 198.032 65.2274C197.368 65.2274 196.786 65.3881 196.263 65.7096C195.741 66.0311 195.359 66.4731 195.078 67.0357C194.797 67.5983 194.656 68.2413 194.656 68.9646C194.656 69.708 194.797 70.3711 195.078 70.9538C195.359 71.5365 195.741 71.9785 196.263 72.3C196.786 72.6215 197.368 72.7822 198.032 72.7822C199.036 72.7822 199.86 72.4406 200.483 71.7374ZM204.797 60.0636H206.444V74.1284H204.797V60.0636ZM208.742 66.2521C209.144 65.4685 209.726 64.8657 210.47 64.4237C211.193 63.9816 212.037 63.7606 213.001 63.7606C213.926 63.7606 214.769 63.9615 215.493 64.3433C216.216 64.7452 216.779 65.3078 217.201 66.0311C217.603 66.7745 217.824 67.6385 217.864 68.623C217.864 68.7838 217.844 69.0048 217.824 69.3263H209.867V69.4669C209.887 70.4716 210.188 71.2753 210.791 71.878C211.374 72.4808 212.137 72.7822 213.102 72.7822C213.825 72.7822 214.448 72.6014 214.97 72.2397C215.493 71.878 215.834 71.3556 216.015 70.6926H217.683C217.482 71.7374 216.98 72.6014 216.176 73.2644C215.372 73.9275 214.388 74.249 213.222 74.249C212.198 74.249 211.314 74.048 210.55 73.606C209.787 73.164 209.184 72.5612 208.762 71.7575C208.34 70.9538 208.139 70.0496 208.139 69.0048C208.139 67.96 208.34 67.0558 208.742 66.2521ZM216.156 67.96C216.076 67.096 215.734 66.4128 215.171 65.9306C214.609 65.4484 213.885 65.2073 213.021 65.2073C212.238 65.2073 211.555 65.4685 210.972 65.9708C210.369 66.4932 210.048 67.1563 209.967 67.96H216.156ZM218.996 72.3201C219.197 72.1192 219.479 71.9986 219.82 71.9986C220.142 71.9986 220.423 72.1192 220.644 72.3201C220.845 72.521 220.965 72.8023 220.965 73.1238C220.965 73.4654 220.845 73.7467 220.644 73.9476C220.423 74.1485 220.142 74.249 219.82 74.249C219.479 74.249 219.197 74.1485 218.996 73.9476C218.775 73.7467 218.675 73.4654 218.675 73.1238C218.675 72.8023 218.775 72.521 218.996 72.3201Z" fill="white"/>
</svg>
