<svg width="106" height="156" viewBox="0 0 106 156" fill="none" xmlns="http://www.w3.org/2000/svg">
<path d="M14.3413 28.7621C18.8735 26.9481 25.7501 24.8156 30.5397 23.1579L62.0508 12.1868L80.6744 5.68695C82.5507 5.02507 84.4955 4.35985 86.3419 3.68918C90.2157 2.28242 93.2473 1.05046 97.2829 2.83211C100.845 4.40469 103.321 7.88535 103.313 11.826C103.388 16.5406 103.369 21.2078 103.367 25.9044L103.36 51.3002L103.362 74.014C103.36 77.9077 103.448 82.0435 103.306 85.9209C103.11 91.2444 98.8092 96.8832 93.7256 98.5838C83.2892 102.076 72.881 106.289 62.4183 109.693L62.4341 133.535C62.4341 137.706 62.6645 142.143 62.0807 146.254C61.8573 147.83 60.4699 149.89 59.3639 151.002C53.918 156.481 47.4891 152.602 41.4586 150.378L27.5549 145.334L18.4309 142.027C17.6139 141.73 14.8082 140.769 14.1475 140.427C13.4707 140.217 12.8366 139.961 12.2013 139.646C8.3269 137.729 5.11564 134.182 3.775 130.047C2.6023 126.427 3.10855 111.806 3.10943 106.854L3.11224 74.8608L3.1068 54.023C3.10697 50.354 3.0704 46.6773 3.1752 43.0114C3.35843 36.6091 8.30316 30.6622 14.3413 28.7621Z" stroke="white" stroke-width="3.89771"/>
<path d="M14.3412 28.7621C18.8734 26.9481 25.75 24.8156 30.5396 23.1579L62.0507 12.1868L80.6743 5.68695C82.5506 5.02507 84.4954 4.35985 86.3418 3.68918C90.2156 2.28242 93.2472 1.05046 97.2828 2.83211C100.845 4.40469 103.321 7.88535 103.312 11.826C103.388 16.5406 103.369 21.2078 103.367 25.9044L103.36 51.3002L103.362 74.014C103.36 77.9077 103.448 82.0435 103.305 85.9209C103.11 91.2444 98.8091 96.8832 93.7255 98.5838C83.2891 102.076 72.8809 106.289 62.4182 109.693L62.4111 85.3116C62.4129 80.2357 62.383 75.2195 62.383 70.0844C62.3848 64.7028 59.1616 58.9612 54.2485 56.5381C50.8811 54.8776 46.5764 53.5531 42.9901 52.2496L22.4054 44.8129C19.8008 43.8905 15.1617 42.6436 13.2951 40.7696C9.27742 36.7361 10.9437 32.1974 14.3412 28.7621Z" stroke="white" stroke-width="3.89771"/>
<path d="M14.1467 140.427C13.1716 139.067 12.329 138.972 11.4394 136.546C10.774 134.726 10.8622 132.716 11.6847 130.959C13.4616 127.173 16.8372 126.355 20.4675 124.998L28.5587 121.981L62.4174 109.693L62.4332 133.535C62.4332 137.706 62.6636 142.143 62.0798 146.254C61.8565 147.83 60.4691 149.891 59.363 151.002C53.9171 156.481 47.4883 152.602 41.4577 150.378L27.5541 145.334L18.43 142.027C17.6131 141.73 14.8073 140.77 14.1467 140.427Z" stroke="white" stroke-width="3.89771"/>
<path opacity="0.79" d="M8.375 1.94702H10.3757L13.3835 9.3457L16.3376 1.94702H18.2981V11.3464H16.8076V4.43115L13.9878 11.3464H12.6853L9.86548 4.43115V11.3464H8.375V1.94702Z" fill="white"/>
<path opacity="0.79" d="M0 1.94702H7.34497V3.31665H4.44458V11.3464H2.90039V3.31665H0V1.94702Z" fill="white"/>
</svg>
