<svg width="36" height="32" viewBox="0 0 36 32" fill="none" xmlns="http://www.w3.org/2000/svg">
<g clip-path="url(#clip0_448_475)">
<path fill-rule="evenodd" clip-rule="evenodd" d="M13.8965 2.30542L7.15578 15.9491L0.415039 29.5927H7.15578L13.8965 15.9491V29.5927H20.6373V15.9491V2.30542H13.8965Z" fill="black"/>
<path d="M13.8964 2.30545V2.0509H13.734L13.6631 2.19435L13.8964 2.30545ZM0.414888 29.5927L0.181623 29.4816L0.000976562 29.8473H0.414888V29.5927ZM7.15563 29.5927V29.8473H7.31802L7.38889 29.7038L7.15563 29.5927ZM13.8964 15.9491H14.1556L13.6631 15.838L13.8964 15.9491ZM13.8964 29.5927H13.6371V29.8473H13.8964V29.5927ZM20.6371 29.5927V29.8473H20.8964V29.5927H20.6371ZM20.6371 2.30545H20.8964V2.0509H20.6371V2.30545ZM7.38889 16.0602L14.1296 2.41654L13.6631 2.19435L6.92237 15.838L7.38889 16.0602ZM0.648152 29.7038L7.38889 16.0602L6.92237 15.838L0.181623 29.4816L0.648152 29.7038ZM7.15563 29.3382H0.414888V29.8473H7.15563V29.3382ZM13.6631 15.838L6.92237 29.4816L7.38889 29.7038L14.1296 16.0602L13.6631 15.838ZM14.1556 29.5927V15.9491H13.6371V29.5927H14.1556ZM20.6371 29.3382H13.8964V29.8473H20.6371V29.3382ZM20.3779 15.9491V29.5927H20.8964V15.9491H20.3779ZM20.3779 2.30545V15.9491H20.8964V2.30545H20.3779ZM13.8964 2.55999H20.6371V2.0509H13.8964V2.55999Z" fill="white"/>
<path fill-rule="evenodd" clip-rule="evenodd" d="M20.6372 2.30542L13.8965 15.9491H20.6372V29.5927H27.378V15.9491V2.30542H20.6372Z" fill="white"/>
<path d="M13.8963 15.9491L13.6631 15.838L13.4824 16.2036H13.8963V15.9491ZM20.637 2.30545V2.0509H20.4746L20.4038 2.19435L20.637 2.30545ZM20.637 15.9491H20.8963V15.6945H20.637V15.9491ZM20.637 29.5927H20.3778V29.8473H20.637V29.5927ZM27.3778 29.5927V29.8473H27.637V29.5927H27.3778ZM27.3778 2.30545H27.637V2.0509H27.3778V2.30545ZM14.1295 16.0602L20.8703 2.41654L20.4038 2.19435L13.6631 15.838L14.1295 16.0602ZM20.637 15.6945H13.8963V16.2036H20.637V15.6945ZM20.8963 29.5927V15.9491H20.3778V29.5927H20.8963ZM27.3778 29.3382H20.637V29.8473H27.3778V29.3382ZM27.1185 15.9491V29.5927H27.637V15.9491H27.1185ZM27.1185 2.30545V15.9491H27.637V2.30545H27.1185ZM20.637 2.55999H27.3778V2.0509H20.637V2.55999Z" fill="white"/>
<path fill-rule="evenodd" clip-rule="evenodd" d="M27.3779 2.30542L20.6372 15.9491H27.3779V29.5927H34.1187V15.9491V2.30542H27.3779Z" fill="black"/>
<path d="M20.637 15.9491L20.4038 15.838L20.2231 16.2036H20.637V15.9491ZM27.3778 2.30545V2.0509H27.2154L27.1445 2.19435L27.3778 2.30545ZM27.3778 15.9491H27.637V15.6945H27.3778V15.9491ZM27.3778 29.5927H27.1185V29.8473H27.3778V29.5927ZM34.1185 29.5927V29.8473H34.3778V29.5927H34.1185ZM34.1185 2.30545H34.3778V2.0509H34.1185V2.30545ZM20.8703 16.0602L27.611 2.41654L27.1445 2.19435L20.4038 15.838L20.8703 16.0602ZM27.3778 15.6945H20.637V16.2036H27.3778V15.6945ZM27.637 29.5927V15.9491H27.1185V29.5927H27.637ZM34.1185 29.3382H27.3778V29.8473H34.1185V29.3382ZM33.8592 15.9491V29.5927H34.3778V15.9491H33.8592ZM33.8592 2.30545V15.9491H34.3778V2.30545H33.8592ZM27.3778 2.55999H34.1185V2.0509H27.3778V2.55999Z" fill="white"/>
</g>
<defs>
<clipPath id="clip0_448_475">
<rect width="35" height="28" fill="white" transform="translate(0 2)"/>
</clipPath>
</defs>
</svg>
