<svg width="99" height="32" viewBox="0 0 99 32" fill="none" xmlns="http://www.w3.org/2000/svg">
<g clip-path="url(#clip0_448_623)">
<path d="M7.95536 7.90625H13.9307C15.6897 7.90625 17.0598 8.24206 18.0145 8.91538C18.9797 9.58869 19.4641 10.5539 19.4641 11.8179C19.4641 12.5401 19.291 13.1662 18.9444 13.691C18.5979 14.2226 18.0869 14.6427 17.4081 14.9549C18.3451 15.2519 19.0628 15.7228 19.5649 16.3674C20.0634 17.012 20.3109 17.795 20.3109 18.713C20.3109 19.6192 20.0687 20.3988 19.5861 21.0417C19.1035 21.6931 18.414 22.196 17.5177 22.5504C16.6232 22.9048 15.5554 23.0819 14.3002 23.0819H7.95359L7.95536 7.90625ZM0 29H28.2857V2H0V29ZM13.6302 10.4375C15.3468 10.4375 16.2113 11.0399 16.2113 12.2431C16.2113 12.8658 15.992 13.3518 15.5518 13.6978C15.1116 14.0454 14.4734 14.2175 13.6426 14.2175H11.2029V10.4375H13.6302ZM14.0403 16.5969H11.1764V20.6975H13.9873C14.9525 20.6975 15.6968 20.5237 16.2148 20.1778C16.7345 19.8301 16.9944 19.3323 16.9944 18.6809C16.9944 17.2938 16.0062 16.6053 14.0244 16.6053L14.0403 16.5969Z" fill="black"/>
<path d="M43.3123 7.90625H49.2876C51.0467 7.90625 52.4168 8.24206 53.3714 8.91538C54.3366 9.58869 54.821 10.5539 54.821 11.8179C54.821 12.5401 54.648 13.1662 54.3013 13.691C53.9548 14.2226 53.4421 14.6427 52.765 14.9549C53.702 15.2519 54.4197 15.7228 54.9218 16.3674C55.4203 17.012 55.6678 17.795 55.6678 18.713C55.6678 19.6192 55.4257 20.3988 54.943 21.0417C54.4604 21.6931 53.7709 22.196 52.8746 22.5504C51.9801 22.9048 50.9123 23.0819 49.6571 23.0819H43.3105L43.3123 7.90625ZM35.3569 29H63.6426V2H35.3569V29ZM48.9871 10.4375C50.7037 10.4375 51.5682 11.0399 51.5682 12.2431C51.5682 12.8658 51.349 13.3518 50.9088 13.6978C50.4686 14.0454 49.8304 14.2175 48.9995 14.2175H46.5598V10.4375H48.9871ZM49.3973 16.5969H46.5333V20.6975H49.3442C50.3095 20.6975 51.0537 20.5237 51.5717 20.1778C52.0915 19.8301 52.3513 19.3323 52.3513 18.6809C52.3513 17.2938 51.3631 16.6053 49.3813 16.6053L49.3973 16.5969Z" fill="black"/>
<path d="M88.7465 22.9251C89.6145 22.7242 90.3782 22.4492 91.0447 22.1032V19.2176C89.6534 20.0361 88.1278 20.4461 86.4836 20.4461C85.4053 20.4461 84.486 20.2521 83.7258 19.8639C82.9691 19.4758 82.3928 18.9105 81.9968 18.1596C81.5991 17.4171 81.4011 16.5176 81.4011 15.4596C81.4011 14.4049 81.6061 13.5021 82.018 12.7764C82.4299 12.0407 83.0204 11.4787 83.7859 11.0906C84.5567 10.7025 85.4883 10.5084 86.5791 10.5084C87.3729 10.5084 88.1295 10.6093 88.842 10.8105C89.5597 11.0113 90.2262 11.3066 90.8396 11.6947V8.74162C90.1661 8.40918 89.436 8.15606 88.6475 7.98225C87.8608 7.80843 87.0264 7.72237 86.1371 7.72237C84.8643 7.72237 83.7152 7.90293 82.6898 8.26406C81.6645 8.62518 80.7805 9.14493 80.0557 9.825C79.3221 10.5051 78.7599 11.3201 78.3709 12.2719C77.982 13.2219 77.7876 14.28 77.7876 15.4612C77.7876 16.6695 77.9749 17.7562 78.3497 18.7181C78.7245 19.6834 79.2619 20.49 79.9673 21.165C80.6709 21.8316 81.5319 22.3412 82.5484 22.6956C83.5667 23.0499 84.7052 23.2271 85.978 23.2271C86.9362 23.2271 87.852 23.1262 88.7182 22.9251H88.7465ZM99.0001 28.9663H70.7144V1.96631H99.0001V28.9663Z" fill="black"/>
</g>
<defs>
<clipPath id="clip0_448_623">
<rect width="99" height="27" fill="white" transform="translate(0 2)"/>
</clipPath>
</defs>
</svg>
