<svg width="124" height="32" viewBox="0 0 124 32" fill="none" xmlns="http://www.w3.org/2000/svg">
<path d="M28.5904 10.5823C24.5204 10.5823 21.3466 13.6628 21.3466 17.8075C21.3466 21.9522 24.4457 25.014 28.5904 25.014C32.7351 25.014 35.8903 21.8961 35.8903 17.7888C35.8903 13.7001 32.7911 10.5823 28.5904 10.5823ZM28.6278 22.0268C26.3127 22.0268 24.6138 20.2345 24.6138 17.8075C24.6138 15.3617 26.2754 13.5694 28.6091 13.5694C30.9615 13.5694 32.6418 15.3991 32.6418 17.8075C32.6418 20.2159 30.9428 22.0268 28.6278 22.0268ZM36.7865 13.7375H38.8028V24.7526H42.0327V10.8623H36.7865V13.7375ZM13.2065 13.5694C14.9055 13.5694 16.2497 14.6149 16.7725 16.1832H20.189C19.5729 12.86 16.8285 10.6009 13.2439 10.6009C9.17386 10.6009 6 13.6814 6 17.8261C6 21.9708 9.09918 25.0327 13.2439 25.0327C16.7538 25.0327 19.5543 22.7736 20.1704 19.4131H16.7725C16.287 20.9627 14.9428 22.0455 13.2439 22.0455C10.8915 22.0455 9.24854 20.2532 9.24854 17.8261C9.24854 15.3617 10.8728 13.5694 13.2065 13.5694ZM98.2287 16.4632L95.8576 16.1085C94.7188 15.9405 93.916 15.5671 93.916 14.6896C93.916 13.7188 94.9615 13.2334 96.3991 13.2334C97.9673 13.2334 98.9568 13.9055 99.1809 15.007H102.299C101.944 12.2065 99.797 10.5823 96.4737 10.5823C93.0572 10.5823 90.7795 12.3372 90.7795 14.8016C90.7795 17.1727 92.2544 18.5356 95.2602 18.965L97.6313 19.3197C98.7888 19.4878 99.4422 19.9358 99.4422 20.7946C99.4422 21.8962 98.3034 22.3442 96.7538 22.3442C94.8308 22.3442 93.7666 21.5601 93.5986 20.3839H90.4247C90.7235 23.091 92.8518 24.9953 96.7351 24.9953C100.264 24.9953 102.616 23.3897 102.616 20.6079C102.597 18.1622 100.898 16.874 98.2287 16.4632ZM40.4271 5.13069C39.2322 5.13069 38.3547 5.9895 38.3547 7.1657C38.3547 8.34189 39.2509 9.2007 40.4271 9.2007C41.6219 9.2007 42.4994 8.34189 42.4994 7.1657C42.4994 5.9895 41.6033 5.13069 40.4271 5.13069ZM87.8856 15.6044C87.8856 12.5986 86.056 10.5823 82.1727 10.5823C78.5134 10.5823 76.4597 12.4306 76.049 15.287H79.2602C79.4282 14.1855 80.287 13.2707 82.1167 13.2707C83.7596 13.2707 84.5624 13.9988 84.5624 14.8763C84.5624 16.0338 83.0875 16.3326 81.2392 16.5193C78.7561 16.7806 75.6943 17.6394 75.6943 20.8693C75.6943 23.3711 77.5613 24.9767 80.5111 24.9767C82.8261 24.9767 84.2824 24.0058 85.0105 22.4749C85.1225 23.8378 86.1494 24.734 87.5683 24.734H89.4539V21.8588H87.867L87.8856 15.6044ZM84.6931 19.0957C84.6931 20.944 83.0688 22.3256 81.1085 22.3256C79.895 22.3256 78.8681 21.8215 78.8681 20.7386C78.8681 19.3757 80.5111 18.9837 82.0233 18.8343C83.4796 18.7036 84.2824 18.3862 84.6931 17.7515V19.0957ZM67.5356 10.5823C65.7246 10.5823 64.2124 11.3291 63.1482 12.5986V5H59.9183V24.734H63.0922V22.9043C64.175 24.2112 65.706 24.9953 67.5356 24.9953C71.4189 24.9953 74.3501 21.9335 74.3501 17.7888C74.3501 13.6441 71.3629 10.5823 67.5356 10.5823ZM67.0502 22.0268C64.7351 22.0268 63.0362 20.2345 63.0362 17.8075C63.0362 15.3804 64.7538 13.5694 67.0688 13.5694C69.4212 13.5694 71.0642 15.3617 71.0642 17.8075C71.0642 20.2345 69.3652 22.0268 67.0502 22.0268ZM52.1704 10.5823C50.0607 10.5823 48.6978 11.4411 47.895 12.6546V10.8623H44.6838V24.7526H47.9137V17.21C47.9137 15.0817 49.2579 13.5881 51.2555 13.5881C53.1225 13.5881 54.28 14.895 54.28 16.818V24.7713H57.5099V16.5753C57.5099 13.0653 55.699 10.5823 52.1704 10.5823ZM118 17.3594C118 13.3827 115.088 10.5823 111.186 10.5823C107.041 10.5823 103.998 13.7001 103.998 17.8075C103.998 22.1389 107.265 25.014 111.242 25.014C114.602 25.014 117.253 23.035 117.925 20.1972H114.565C114.079 21.4294 112.903 22.1389 111.298 22.1389C109.225 22.1389 107.657 20.8506 107.302 18.5916H118V17.3594ZM107.489 16.2765C107.993 14.3349 109.449 13.4014 111.13 13.4014C112.959 13.4014 114.359 14.4469 114.695 16.2765H107.489Z" fill="black"/>
</svg>
