<svg width="32" height="32" viewBox="0 0 32 32" fill="none" xmlns="http://www.w3.org/2000/svg">
<path fill-rule="evenodd" clip-rule="evenodd" d="M2.04993 25.0111C1.97703 24.1625 2.3531 23.3704 2.80496 22.6019C4.61532 19.5261 5.31194 16.28 4.30297 12.7762C3.93414 11.4964 3.28 10.3463 2.64179 9.19143C1.57634 7.26227 1.83896 5.38763 3.41855 3.76336C5.20139 1.93069 7.09622 1.50231 9.0712 2.59207C10.7473 3.51685 12.3984 4.44983 14.3352 4.74458C17.239 5.18695 19.8445 4.50482 22.3032 2.93024C24.6991 1.39569 26.8817 1.79127 28.7543 3.94185C30.149 5.54345 30.4025 7.25745 29.3631 9.11328C28.2411 11.1167 27.2626 13.1187 27.2259 15.5023C27.1878 18.006 27.8535 20.2743 29.0589 22.4312C30.9987 25.9006 28.9933 29.6306 25.0293 29.9881C23.9533 30.0851 23.1128 29.5732 22.2737 29.0498C19.8541 27.5399 17.2728 26.8418 14.3975 27.2142C12.7025 27.4337 11.2484 28.1689 9.81899 28.9967C6.83264 30.7257 4.10069 29.9534 2.42696 26.8944C2.11317 26.3208 2.02724 25.7217 2.04993 25.0111" fill="black"/>
</svg>
