<svg width="120" height="32" viewBox="0 0 120 32" fill="none" xmlns="http://www.w3.org/2000/svg">
<path fill-rule="evenodd" clip-rule="evenodd" d="M15.1145 4.75C8.96082 4.75 3.97161 9.78625 3.97161 16C3.97161 22.2128 8.96082 27.25 15.1145 27.25C21.2681 27.25 26.2573 22.2128 26.2573 16C26.2573 9.78625 21.2681 4.75 15.1145 4.75M15.1145 29.125C7.93475 29.125 2.11447 23.2469 2.11447 16C2.11447 8.75125 7.93475 2.875 15.1145 2.875C22.2923 2.875 28.1145 8.75125 28.1145 16C28.1145 23.2469 22.2923 29.125 15.1145 29.125M15.1145 1C6.90961 1 0.257324 7.71531 0.257324 16C0.257324 24.2838 6.90961 31 15.1145 31C23.3193 31 29.9716 24.2838 29.9716 16C29.9716 7.71531 23.3193 1 15.1145 1" fill="black"/>
<path d="M105.372 10.8396H102.489V21.0275H104.12V12.1664L106.675 21.0275H109.154L111.695 12.1695V21.0275H113.325V10.8396H110.497L107.934 20.058L105.372 10.8396Z" fill="black"/>
<path fill-rule="evenodd" clip-rule="evenodd" d="M96.7195 10.8396H92.9556V21.0275H94.6266V17.0985H96.3806C96.6741 17.0985 96.897 17.1313 97.0545 17.192L97.0559 17.1925C97.2191 17.2523 97.3587 17.3591 97.4755 17.5162L97.4792 17.5206C97.6065 17.6715 97.7468 17.9128 97.8991 18.2503L99.2126 21.0275H101.139L99.6598 18.0814C99.3523 17.4665 99.0957 17.0286 98.8901 16.7742C98.7646 16.6133 98.6243 16.4849 98.4692 16.3905C99.1452 16.2819 99.6681 16.0185 100.027 15.5914C100.451 15.0884 100.66 14.4311 100.66 13.6286C100.66 12.6114 100.315 11.88 99.6114 11.462C98.923 11.0437 97.9559 10.8396 96.7195 10.8396ZM94.6266 15.6623V12.3609H96.7195C97.2583 12.3609 97.6887 12.4033 98.0134 12.4859C98.3305 12.5666 98.5741 12.7263 98.75 12.9629L98.7511 12.9643C98.9225 13.1864 99.0158 13.5301 99.0158 14.0116C99.0158 14.4828 98.9228 14.8278 98.75 15.0602L98.7488 15.062C98.5826 15.2967 98.3397 15.4564 98.0134 15.5373C97.6887 15.6199 97.2583 15.6623 96.7195 15.6623H94.6266Z" fill="black"/>
<path fill-rule="evenodd" clip-rule="evenodd" d="M86.8855 10.6818C85.9315 10.6818 85.0968 10.9074 84.3847 11.3622C83.6739 11.8162 83.1291 12.4444 82.7512 13.2448C82.3738 14.044 82.186 14.9379 82.186 15.9247C82.186 16.9208 82.3738 17.8194 82.7512 18.6188C83.1291 19.4095 83.6738 20.0377 84.384 20.5009C85.0961 20.9556 85.9315 21.1818 86.8855 21.1818C87.8394 21.1818 88.6698 20.9561 89.3731 20.501C90.0834 20.0378 90.6239 19.4096 90.9928 18.6185C91.3701 17.8193 91.5578 16.9207 91.5578 15.9247C91.5578 14.9381 91.3701 14.0443 90.9928 13.2452C90.624 12.4446 90.0836 11.8162 89.3727 11.3622C88.6607 10.9075 87.8306 10.6818 86.8855 10.6818ZM84.6234 13.2036C85.1361 12.5399 85.8851 12.2031 86.8855 12.2031C87.8765 12.2031 88.6211 12.5397 89.134 13.2036C89.6508 13.8726 89.9139 14.7763 89.9139 15.9247C89.9139 17.0827 89.6507 17.991 89.134 18.6599C88.6304 19.323 87.8859 19.6604 86.8855 19.6604C85.8853 19.6604 85.1363 19.3237 84.6236 18.6602C84.1065 17.9815 83.8435 17.0728 83.8435 15.9247C83.8435 14.7763 84.1066 13.8726 84.6234 13.2036Z" fill="black"/>
<path d="M80.9205 10.8396H74.2603V21.0275H75.8906V16.985H80.3917V15.5062H75.8906V12.3326H80.9205V10.8396Z" fill="black"/>
<path d="M72.7772 10.8396H64.6392V12.3326H67.893V21.0275H69.5233V12.3326H72.7772V10.8396Z" fill="black"/>
<path fill-rule="evenodd" clip-rule="evenodd" d="M61.5795 10.8396H58.8338L55.5464 21.0275H57.2411L58.4206 17.3396H61.9654L63.1449 21.0275H64.853L61.5795 10.8396ZM61.4851 15.8467H58.9013L60.1994 11.8111L61.4851 15.8467Z" fill="black"/>
<path d="M49.8852 10.8396H48.2549V19.969C48.2549 20.2983 48.3411 20.5663 48.5252 20.7589L48.5271 20.7608C48.7114 20.9429 48.9668 21.0275 49.2802 21.0275H54.34V19.5204H49.8852V10.8396Z" fill="black"/>
<path fill-rule="evenodd" clip-rule="evenodd" d="M42.5092 10.8396H39.4502V21.0275H41.0805V17.7651H42.5092C43.8814 17.7651 44.9167 17.5091 45.5993 16.9809C46.2998 16.446 46.6392 15.5411 46.6392 14.2953C46.6392 13.0498 46.3 12.1492 45.5989 11.6236C44.9164 11.0956 43.8812 10.8396 42.5092 10.8396ZM41.0805 16.2722V12.3326H42.5634C43.3971 12.3326 44.0095 12.4738 44.4131 12.7433C44.8004 13.0019 45.0088 13.5058 45.0088 14.2953C45.0088 15.0844 44.8006 15.5939 44.4122 15.8621C44.0181 16.1309 43.4064 16.2722 42.5634 16.2722H41.0805Z" fill="black"/>
</svg>
