<svg width="124" height="32" viewBox="0 0 124 32" fill="none" xmlns="http://www.w3.org/2000/svg">
<g clip-path="url(#clip0_448_599)">
<path d="M1.82261 7.90093C2.58853 7.26565 3.55384 6.94693 4.53317 7.00723C4.53317 9.00999 4.53317 11.0128 4.53317 13.0155C4.54874 13.5001 4.94027 13.8796 5.4076 13.8629C5.42059 13.8624 5.43409 13.8618 5.44707 13.8608H17.1461C18.1238 13.829 19.0767 14.1854 19.8099 14.8568C20.5021 15.5443 20.892 16.4956 20.8899 17.4894C20.8899 18.7062 20.8899 19.9213 20.8899 21.1342C20.8811 22.337 20.3369 23.4676 19.4152 24.1976C18.7246 24.7263 17.885 25.003 17.0266 24.9836H0C0.773702 23.7023 1.55779 22.4156 2.31591 21.1342C6.8335 21.1342 11.3511 21.1342 15.8687 21.1342C16.3334 21.1881 16.7519 20.8408 16.8034 20.359C16.8065 20.3321 16.808 20.3051 16.8085 20.2782C16.8085 19.4168 16.8085 18.5554 16.8085 17.694H4.39816C3.45466 17.7344 2.52621 17.4399 1.76549 16.8595C0.962194 16.1925 0.491223 15.1863 0.482915 14.1192C0.482915 13.0247 0.482915 11.928 0.482915 10.8297C0.493819 9.69696 0.984003 8.62667 1.82261 7.90093Z" fill="black"/>
<path d="M6.26758 7.0127H20.5058C19.7684 8.24558 19.0051 9.46231 18.2781 10.7006C15.0275 10.7383 11.7718 10.7006 8.52118 10.7006L6.26758 7.0127Z" fill="black"/>
<path d="M25.3662 7.01809H29.5203C29.5203 9.31858 29.5203 11.6174 29.5203 13.9147C31.4572 13.9147 33.3992 13.9147 35.3361 13.9147C37.6156 11.6158 39.8848 9.29543 42.1799 7.00732C44.0753 7.00732 45.9758 7.00732 47.8918 7.00732C44.8526 10.04 41.8128 13.0732 38.7736 16.1059C41.7786 19.0632 44.7815 22.0227 47.7828 24.9837C45.8615 24.9837 43.9454 24.9837 42.0242 24.9837C39.6942 22.651 37.3648 20.3176 35.0349 17.9848C33.2123 17.9848 31.4 17.9848 29.5619 17.9848C29.5619 20.3214 29.5619 22.6542 29.5619 24.9837H25.4078C25.3802 18.997 25.3662 13.0086 25.3662 7.01809Z" fill="black"/>
<path d="M53.9413 7.1687C54.4974 7.05994 55.0634 7.01257 55.6289 7.02872C58.7445 7.02872 61.86 7.02872 64.9756 7.02872C66.8585 7.03949 68.6375 7.92727 69.8203 9.44603C70.673 10.5675 71.1377 11.9533 71.1393 13.3816C71.1393 15.1636 71.1393 16.9456 71.1393 18.7277C71.1118 20.6163 70.2721 22.3935 68.8493 23.5731C67.7095 24.4883 66.308 24.9831 64.8666 24.9782H56.2157C55.5951 25.0019 54.9736 24.9766 54.3567 24.9028C51.293 24.505 49 21.7943 49.0187 18.5931C49.0187 16.811 49.0187 15.029 49.0187 13.2524C49.0503 11.4859 49.7918 9.81374 51.0646 8.63847C51.8845 7.89874 52.8758 7.39212 53.9413 7.1687ZM54.6163 11.1365C53.7533 11.3939 53.1598 12.2138 53.1624 13.1447C53.1624 15.0828 53.1624 17.021 53.1624 18.9592C53.2044 20.0752 54.0893 20.9576 55.1667 20.9565H64.9964C66.0676 20.9549 66.9483 20.0795 66.9956 18.9699C66.9956 16.9925 66.9956 15.0182 66.9956 13.0478C66.9426 11.9382 66.0578 11.0676 64.986 11.0719H55.8781C55.4586 11.0359 55.0364 11.0542 54.6215 11.1258L54.6163 11.1365Z" fill="black"/>
<path d="M75.7759 7.01804H90.8345C92.0454 7.00782 93.2351 7.35076 94.2668 8.00866C95.9804 9.11879 97.0537 11.0354 97.1332 13.1286C97.1332 14.34 97.1332 15.5513 97.1332 16.7681C97.1332 17.9848 97.2318 19.3415 96.8372 20.569C96.2156 22.5911 94.6542 24.153 92.6831 24.7253C91.5511 25.086 90.3568 24.9837 89.1884 24.9945H75.7811C75.7774 19.0007 75.7759 13.0086 75.7759 7.01804ZM79.93 11.0505C79.93 14.3491 79.93 17.6472 79.93 20.9459H90.9539C91.7687 20.9588 92.5102 20.4613 92.8337 19.6861C92.9806 19.2564 93.0372 18.7994 92.9998 18.3455C92.9998 16.5689 92.9998 14.7922 92.9998 13.0156C92.9417 11.9011 92.046 11.0322 90.9695 11.0451L79.93 11.0505Z" fill="black"/>
<path d="M108.531 7.01807H114.243C117.493 13.0011 120.746 18.9916 124 24.9891C122.442 24.9891 120.848 24.9891 119.275 24.9891C118.677 23.9123 118.101 22.8356 117.504 21.7588H109.253L107.103 18.2271L103.437 24.9999C101.879 24.9999 100.358 24.9999 98.8208 24.9999C102.051 19.0023 105.287 13.0086 108.531 7.01807ZM107.176 18.0225H115.484C114.103 15.4652 112.706 12.9187 111.33 10.356C109.949 12.9025 108.583 15.4706 107.176 18.0225Z" fill="black"/>
</g>
<defs>
<clipPath id="clip0_448_599">
<rect width="124" height="18" fill="white" transform="translate(0 7)"/>
</clipPath>
</defs>
</svg>
