<svg width="32" height="32" viewBox="0 0 32 32" fill="none" xmlns="http://www.w3.org/2000/svg">
<g clip-path="url(#clip0_448_499)">
<path d="M16.0006 29.1618C23.4837 29.1618 29.5499 23.0632 29.5499 15.5402C29.5499 8.01714 23.4837 1.91852 16.0006 1.91852C8.51744 1.91852 2.45117 8.01714 2.45117 15.5402C2.45117 23.0632 8.51744 29.1618 16.0006 29.1618Z" stroke="black" stroke-width="1.69968"/>
<path d="M9.44073 3.90439C9.62869 3.72575 10.0294 3.60995 10.7882 3.75616C11.5242 3.89795 12.4662 4.26467 13.5575 4.84753C15.7339 6.00985 18.4021 7.97613 21.033 10.4759C23.6638 12.9758 25.7332 15.511 26.9565 17.579C27.5699 18.6159 27.9558 19.511 28.105 20.2103C28.2589 20.9314 28.137 21.3121 27.9491 21.4907C27.761 21.6693 27.3604 21.7852 26.6015 21.639C25.8655 21.4971 24.9236 21.1304 23.8322 20.5476C21.6558 19.3852 18.9877 17.419 16.3568 14.9191C13.7259 12.4193 11.6566 9.8841 10.4333 7.81616C9.81988 6.77915 9.43392 5.88411 9.28473 5.18482C9.13086 4.4637 9.25271 4.08302 9.44073 3.90439Z" stroke="black" stroke-width="1.69968"/>
<path d="M23.0665 3.89861C23.2501 4.07305 23.3708 4.45501 23.2037 5.19239C23.0423 5.90503 22.6378 6.81867 22.0013 7.87822C20.7317 9.9911 18.5982 12.5875 15.8967 15.1544C13.1951 17.7215 10.4626 19.7487 8.23893 20.955C7.12385 21.5598 6.16231 21.9441 5.41231 22.0976C4.63627 22.2562 4.23429 22.1415 4.0507 21.9671C3.86712 21.7926 3.7464 21.4107 3.91342 20.6733C4.07483 19.9607 4.47933 19.047 5.11593 17.9875C6.38545 15.8746 8.51891 13.2782 11.2205 10.7112C13.9221 8.14426 16.6546 6.11705 18.8783 4.91078C19.9933 4.30589 20.9548 3.92154 21.7048 3.76816C22.4809 3.60947 22.8829 3.72418 23.0665 3.89861Z" stroke="black" stroke-width="1.69968"/>
</g>
<defs>
<clipPath id="clip0_448_499">
<rect width="30" height="29" fill="white" transform="translate(1 1)"/>
</clipPath>
</defs>
</svg>
