<svg width="124" height="32" viewBox="0 0 124 32" fill="none" xmlns="http://www.w3.org/2000/svg">
<path d="M2.21582 2H30.2158V30H2.21582V2Z" fill="black"/>
<path d="M15.2828 17.8663L10.4307 8.81305H12.6709L15.4709 14.5065C15.4709 14.6 15.5644 14.6935 15.6578 14.787C15.7513 14.8805 15.7513 14.9739 15.8448 15.1598L15.9383 15.2533V15.3468C16.0318 15.5337 16.0318 15.6272 16.1253 15.8142C16.2187 15.9076 16.2187 16.0946 16.3122 16.187C16.4057 15.9065 16.5927 15.7196 16.685 15.3468C16.7785 15.0663 16.9655 14.787 17.1524 14.5065L19.9524 8.81305H22.0057L17.1536 17.9609V23.7479H15.2873L15.2828 17.8663Z" fill="white"/>
<path d="M41.4246 11.8434C42.6043 11.8434 43.6281 12.1583 44.416 12.7893L43.6292 13.7353C42.9203 13.2634 42.2125 12.9485 41.3478 12.9485C40.009 12.9485 38.9863 13.6574 38.4354 14.9962C38.1205 15.783 37.9636 16.8068 37.9636 18.1456C37.9636 19.1695 38.1194 20.0353 38.3575 20.6652C38.9874 22.1609 40.0113 22.8687 41.5849 22.8687C42.4507 22.8687 43.2386 22.6327 43.9464 22.0819L44.7332 23.1057C43.7094 23.7356 42.6187 24.0517 41.428 24.0517C40.0113 24.0517 38.8305 23.5008 37.8857 22.32C36.9397 21.2071 36.5469 19.7226 36.5469 17.913C36.5469 16.1035 37.0187 14.6857 37.9636 13.506C38.8294 12.4822 40.0113 11.8523 41.428 11.8523L41.4246 11.8434ZM45.9117 19.6369C45.9117 18.2202 46.2267 17.1173 46.9356 16.3316C47.6445 15.5459 48.5103 15.0718 49.6121 15.0718C50.8718 15.0718 51.8935 15.5437 52.6035 16.5676C53.1543 17.3544 53.3903 18.4572 53.3903 19.7949C53.3903 21.3696 52.9184 22.6294 52.0515 23.4162C51.3996 23.9889 50.5575 24.2976 49.69 24.282C48.5103 24.282 47.6423 23.8881 46.9345 23.0222C46.2256 22.2354 45.9117 21.0547 45.9117 19.6369ZM51.4227 17.3555C51.0288 16.6466 50.4768 16.2426 49.6121 16.2426C48.7473 16.2426 48.1954 16.5575 47.8014 17.1885C47.4865 17.6604 47.4074 18.4483 47.4074 19.4699C47.4074 20.8087 47.5632 21.7513 47.9583 22.3044C48.3534 22.8575 48.9043 23.1703 49.69 23.1703C50.6359 23.1703 51.2647 22.6984 51.5796 21.8315C51.7354 21.3596 51.8156 20.7186 51.8156 19.9418C51.8935 18.7622 51.7376 17.8941 51.4216 17.3443L51.4227 17.3555ZM55.9076 17.5113C55.9076 16.6455 55.8297 15.9366 55.5927 15.3968L56.9314 15.0819C57.1674 15.4758 57.2464 15.9477 57.2464 16.3416V16.4195C57.5613 16.1046 57.8763 15.7897 58.3593 15.5537C58.9101 15.2388 59.3831 15.0819 59.855 15.0819C60.5639 15.0819 61.1938 15.3968 61.5866 15.9477C61.6645 16.1035 61.8225 16.3416 61.9016 16.4986C62.8475 15.5526 63.7122 15.0819 64.657 15.0819C65.2869 15.0819 65.8367 15.3178 66.2318 15.7118C66.6257 16.1836 66.8617 16.7356 66.8617 17.3655V23.8981H65.4238V17.4434C65.4238 16.5776 65.0299 16.1836 64.3109 16.1836C63.917 16.1836 63.4451 16.3394 63.0512 16.6555C62.8954 16.8113 62.5793 17.0494 62.1853 17.3644L62.0295 17.5202V23.897H60.5338V17.7472C60.5338 17.1963 60.4559 16.8013 60.2979 16.6343C60.062 16.3984 59.826 16.3194 59.4321 16.3194C58.8022 16.3194 58.0933 16.7133 57.2286 17.499V23.9537H55.9087L55.9076 17.5113ZM69.2922 11.5284L70.7089 11.2135C70.8647 11.8434 70.9448 12.5523 70.9448 13.417V16.3294C71.7316 15.5426 72.5985 15.1497 73.4644 15.1497C74.4882 15.1497 75.354 15.5437 75.9049 16.3294C76.5348 17.1162 76.8508 18.2191 76.8508 19.5567C76.8508 20.9734 76.5359 22.0763 75.9049 22.9421C75.2739 23.8079 74.4092 24.2019 73.3853 24.2019C72.9198 24.2106 72.4594 24.1023 72.0466 23.887C71.5747 23.651 71.2597 23.4151 71.0227 23.1001L70.7868 24.0461H69.448C69.6038 23.6521 69.6839 22.9332 69.6839 21.8426V13.5739C69.606 12.628 69.5281 11.9202 69.29 11.5262L69.2922 11.5284ZM71.5736 16.8703C71.3376 17.0261 71.1017 17.2642 70.9437 17.5001V22.0095C71.4946 22.7184 72.2035 23.0334 73.0582 23.0334C73.7671 23.0334 74.3179 22.7974 74.6329 22.2466C75.0268 21.6167 75.2628 20.7509 75.2628 19.4911C75.2628 18.3782 75.107 17.6014 74.7119 17.1296C74.397 16.6577 73.8461 16.4207 73.0582 16.4207C72.5863 16.3428 72.0343 16.4986 71.5625 16.8925L71.5736 16.8703ZM78.8963 12.6413C78.8963 12.3264 78.9742 12.0904 79.2113 11.8545C79.4483 11.6186 79.6831 11.5396 79.9981 11.5396C80.313 11.5396 80.5489 11.6175 80.7849 11.8545C81.0208 12.0916 81.0998 12.3264 81.0998 12.6413C81.0998 12.9563 81.0219 13.1922 80.7849 13.4281C80.5478 13.6641 80.313 13.7431 79.9981 13.7431C79.6831 13.7431 79.4472 13.6652 79.2113 13.4281C78.9753 13.1911 78.8963 12.9563 78.8963 12.6413ZM79.2235 23.9682V15.31L80.6402 15.0741V23.9704L79.2235 23.9682ZM83.6995 17.5113C83.6995 16.8814 83.6995 16.4874 83.6216 16.3316C83.6216 16.0957 83.4658 15.8598 83.3067 15.4658L84.6454 15.0718C84.8608 15.4847 84.9691 15.9451 84.9604 16.4106C85.8262 15.5448 86.771 15.0718 87.7159 15.0718C88.1877 15.0718 88.5817 15.1497 88.9756 15.3868C89.3696 15.6238 89.6845 15.9377 89.8415 16.3327C89.9973 16.6477 90.0774 16.9626 90.0774 17.3566V23.9693H88.7386V18.0655C88.7386 17.3566 88.6607 16.8858 88.4237 16.6488C88.301 16.5227 88.154 16.4228 87.9916 16.3551C87.8292 16.2874 87.6548 16.2533 87.4788 16.2548C87.1639 16.2548 86.692 16.4106 86.219 16.6488C85.7816 16.8723 85.383 17.1646 85.0383 17.5146V23.9693H83.6995V17.5113ZM93.2257 17.1963L92.5168 16.2504C93.6965 15.4636 94.8783 15.0707 96.1381 15.0707C97.3979 15.0707 98.1858 15.5426 98.5787 16.4095C98.7345 16.7245 98.7345 17.1963 98.7345 17.9052V18.3771L98.6566 21.2116V21.6056C98.6566 22.0774 98.6566 22.3924 98.7345 22.6294C98.8124 22.9443 99.0494 23.1803 99.3644 23.3383L98.6555 24.2842C98.0256 24.0483 97.6316 23.6544 97.4758 23.0245C96.689 23.8113 95.8221 24.2041 94.9562 24.2041C94.0904 24.2041 93.3815 23.9682 92.8418 23.4952C92.3699 23.1013 92.1329 22.4714 92.1329 21.6846C92.1121 21.234 92.2103 20.7858 92.4176 20.3852C92.6248 19.9845 92.9339 19.6455 93.3136 19.4021C94.1004 18.8512 95.2812 18.6152 96.699 18.6152H97.3289V17.9854C97.3289 17.2765 97.251 16.8057 97.014 16.6466C96.8647 16.4853 96.6814 16.3592 96.4773 16.2776C96.2733 16.196 96.0536 16.1609 95.8343 16.1747C95.3624 16.1747 94.8105 16.3305 94.1806 16.5687L93.2346 17.1986L93.2257 17.1963ZM97.399 21.8415L97.4769 19.5601H96.768C95.5082 19.5601 94.7203 19.796 94.2485 20.269C93.9335 20.5839 93.7766 21.0558 93.7766 21.6857C93.7766 22.7095 94.2485 23.2604 95.2723 23.2604C95.7192 23.2348 96.1511 23.0899 96.523 22.8407C96.8948 22.5916 97.1931 22.2473 97.3868 21.8437L97.399 21.8415ZM103.224 15.3067H105.427L105.033 16.4195H103.223V22.0095C103.223 22.4814 103.301 22.7963 103.459 23.0334C103.614 23.1892 103.93 23.3483 104.324 23.3483C104.639 23.3483 104.954 23.2704 105.19 23.1925L105.346 24.0583C104.874 24.2943 104.4 24.3733 103.85 24.3733C102.512 24.3733 101.883 23.7434 101.883 22.4057V16.4229H100.702V15.31H101.815V15.1542C101.815 14.9984 101.893 14.3674 101.971 13.3436V13.1065L103.387 12.7916C103.232 13.7375 103.232 14.6022 103.232 15.3111L103.224 15.3067ZM106.845 19.6358C106.845 18.2191 107.16 17.1162 107.869 16.3305C108.499 15.5437 109.444 15.0707 110.545 15.0707C111.805 15.0707 112.827 15.5426 113.537 16.5664C114.088 17.3532 114.324 18.4561 114.324 19.7938C114.324 21.3685 113.852 22.6283 112.985 23.4151C112.333 23.9877 111.491 24.2965 110.623 24.2809C109.444 24.2809 108.576 23.8869 107.868 23.0211C107.238 22.2343 106.845 21.0536 106.845 19.6358ZM112.435 17.3544C112.041 16.6455 111.489 16.2415 110.624 16.2415C109.76 16.2415 109.208 16.5564 108.814 17.1874C108.499 17.6593 108.42 18.4472 108.42 19.4688C108.42 20.8076 108.576 21.7502 108.971 22.3033C109.366 22.8564 109.917 23.1691 110.702 23.1691C111.648 23.1691 112.277 22.6973 112.592 21.8304C112.748 21.3585 112.828 20.7175 112.828 19.9407C112.828 18.761 112.672 17.893 112.434 17.3432L112.435 17.3544ZM116.92 17.3521C116.92 16.5653 116.842 15.9354 116.605 15.4625L117.944 15.0685C118.159 15.4814 118.268 15.9417 118.259 16.4073V16.5631C118.968 15.6172 119.755 15.1464 120.699 15.1464C120.855 15.1464 121.014 15.1464 121.171 15.2243L120.62 16.72C120.465 16.6421 120.305 16.6421 120.226 16.6421C119.911 16.6421 119.517 16.72 119.203 16.9571C118.888 17.1941 118.573 17.4289 118.416 17.7439C118.312 18.0481 118.259 18.3673 118.259 18.6887V24.1195H116.92V17.3521Z" fill="black"/>
</svg>
